<svg width="376" height="327" viewBox="0 0 376 327" fill="none" xmlns="http://www.w3.org/2000/svg">
<path fill-rule="evenodd" clip-rule="evenodd" d="M319.495 170.722C325.619 168.1 331.597 165.748 337.648 163.261C338.28 164.997 339.328 166.609 340.168 168.283C340.592 170.081 340.943 172.015 340.535 174.061C340.805 174.207 341.064 174.696 341.126 174.904C336.874 176.967 332.435 178.406 328.058 180.053C229.739 217.465 131.398 255.561 32.8813 292.692C31.291 293.054 30.0219 294.112 28.3695 294.266C27.9752 293.704 27.581 293.143 27.1138 292.716C26.1174 291.655 26.0256 290.21 25.9337 288.766C28.0344 287.459 30.4456 287.192 32.5463 285.885C34.8954 285.409 36.7261 283.957 39.0752 283.481C41.3109 282.247 43.7329 281.637 46.1035 280.476C48.1097 279.99 49.7946 278.807 51.8737 278.186C53.8178 277.492 55.4298 276.444 57.4359 275.958C59.6716 274.724 62.0207 274.249 64.2564 273.015C66.1897 272.664 67.8745 271.481 69.7457 270.922C85.185 264.611 100.551 258.435 116.126 252.198C117.03 251.814 118.008 251.296 118.974 251.12C140.329 242.249 161.871 234.002 183.226 225.132C184.951 224.843 186.428 223.722 188.019 223.36C231.893 205.724 275.694 188.223 319.495 170.722ZM336.898 165.297C336.79 168.726 337.16 172.239 339.131 175.047C339.506 174.029 339.954 172.876 339.644 171.837C339.584 169.363 338.693 167.138 337.521 165.111C337.314 165.173 337.106 165.235 336.898 165.297ZM325.025 169.523C325.025 169.523 325.001 169.568 324.952 169.658C323.497 170.093 322.166 170.943 320.503 171.44C314.867 173.803 309.243 175.823 303.535 178.321C301.602 178.672 299.979 180.062 298.046 180.414C292.546 182.849 286.994 184.734 281.494 187.17C279.488 187.656 277.73 188.974 275.651 189.595C262.717 194.817 249.587 199.759 236.777 205.397C224.894 209.966 213.073 214.743 201.252 219.52C143.124 242.887 84.9231 266.388 26.6709 289.338C27.2722 290.593 27.8977 291.803 28.5476 292.967C30.543 292.824 32.0929 291.568 33.8912 291.144C51.4716 284.42 68.9899 277.489 86.6325 270.973C143.408 249.143 200.38 227.594 257.218 205.972C258.6 205.672 259.734 204.541 261.106 204.584C276.888 198.284 292.929 192.473 308.847 186.246C318.505 182.568 328.433 179.035 338.102 175.015C336.339 172.144 335.626 168.621 335.869 165.265C332.324 166.663 328.706 168.197 325.025 169.523Z" fill="black"/>
<path fill-rule="evenodd" clip-rule="evenodd" d="M1.74174 322.262C1.55541 321.638 1.85781 320.755 2.61655 320.642C63.8472 301.218 125.264 282.417 186.754 263.482C230.364 249.888 274.17 236.575 317.78 222.981C319.651 222.422 321.46 221.655 323.383 221.647C322.592 222.789 323.796 223.788 324.107 224.827C325.279 226.855 325.203 229.256 324.93 231.375C324.909 232.061 324.887 232.747 325.074 233.371C320.281 235.142 315.167 236.217 310.312 237.78C209.851 266.886 109.442 296.542 8.85673 325.232C6.99634 325.448 5.51942 326.569 3.73192 326.65C3.08924 325.256 1.6878 323.977 1.74174 322.262ZM2.44919 321.598C3.05046 322.852 3.65171 324.107 4.25298 325.362C10.4066 323.976 16.4467 321.832 22.6111 320.104C101.533 296.98 180.579 274.272 259.563 251.356C280.416 245.353 301.404 239.422 322.195 233.211C320.899 230.768 320.57 228.149 320.583 225.54C320.653 224.765 320.768 224.013 320.928 223.286C230.04 251.457 139.213 279.835 48.1271 307.726C32.9497 312.26 17.7616 317.137 2.44919 321.598ZM321.612 225.573C321.733 228.254 321.99 231.008 323.224 233.244C323.869 232.372 324.182 231.146 324.08 230.044C324.02 227.571 323.483 225.014 322.176 222.913C321.874 223.796 321.571 224.679 321.612 225.573Z" fill="black"/>
<path d="M332.744 114.765C333.21 114.454 333.055 113.677 333.521 113.366C334.608 113.522 335.074 114.61 335.773 115.309C337.093 116.864 338.18 118.496 339.345 120.129C339.655 120.517 339.655 120.906 339.733 121.295C339.5 121.372 338.956 121.528 338.723 121.605C336.627 123.782 334.608 126.191 332.2 128.057C330.026 129.767 327.93 131.632 325.6 133.187C321.717 135.674 317.835 138.162 313.564 140.027C307.196 142.903 300.829 145.779 294.306 148.266C288.171 150.365 282.037 152.852 275.747 154.485C272.408 155.262 268.991 156.039 265.574 156.428C264.876 156.505 264.099 156.428 263.4 156.35C261.614 153.396 261.071 149.976 260.216 146.712C260.061 145.934 260.061 145.157 259.983 144.458C260.915 144.561 261.847 144.587 262.779 144.535C270.234 144.147 277.378 141.737 284.522 139.872C288.637 138.706 292.598 136.996 296.48 135.286C302.434 132.384 308.361 129.404 314.263 126.347C318.378 124.17 322.416 121.761 326.532 119.584C328.939 118.419 330.803 116.553 332.744 114.765Z" fill="#333F72"/>
<path d="M234.824 56.0024C240.338 53.2819 247.56 55.1474 251.287 60.0443C253.073 62.4539 253.461 65.7962 252.607 68.6721C251.675 72.4031 249.811 76.2895 246.162 78.0773C242.512 79.7096 238.164 80.0205 234.436 78.4659C231.874 77.3777 230.088 74.9681 228.845 72.4808C227.758 70.3822 227.836 68.0503 227.991 65.7962C228.302 63.4643 229.078 61.2102 230.476 59.267C231.641 57.8679 233.194 56.7797 234.824 56.0024Z" fill="#E57F45"/>
<path d="M302.46 40.2236C307.662 38.0473 313.641 39.0577 318.689 36.4927C321.019 35.3268 323.581 33.9276 326.299 34.5495C329.094 35.0158 331.346 37.7363 331.269 40.6123C331.191 41.2341 331.424 42.4001 330.492 42.4778C329.716 41.9337 329.871 40.8455 329.638 40.0682C329.094 38.4359 328.007 36.8036 326.221 36.3372C323.969 35.6377 321.717 36.8813 319.698 37.8141C314.729 40.3791 308.905 39.9127 303.702 41.7005C301.217 42.6332 299.276 44.8096 298.344 47.2969C297.567 50.1729 297.8 53.8261 300.363 55.7693C300.829 56.2357 301.838 56.0025 301.838 56.7798C301.528 57.5571 300.518 57.4016 299.819 57.1684C297.878 56.3134 296.791 54.2148 296.403 52.1938C296.014 49.7065 296.17 46.986 297.567 44.8096C298.732 42.8664 300.363 41.1564 302.46 40.2236Z" fill="#E57F45"/>
<path d="M306.419 46.2859C307.429 45.4309 308.904 45.3531 310.146 45.4309C312.631 45.6641 315.116 45.2754 317.368 44.3427C318.611 43.8763 319.853 43.1768 321.251 43.1768C322.648 43.2545 323.736 44.4204 324.435 45.5863C324.667 46.0527 324.59 46.7523 324.046 46.83C323.037 46.3636 322.338 45.2754 321.173 45.12C320.086 45.2754 319.232 45.8195 318.222 46.1304C315.737 47.2964 312.864 47.685 310.069 47.3741C309.292 47.3741 308.438 47.2186 307.739 47.685C306.963 48.4623 306.963 49.7059 307.273 50.7164C307.662 51.4937 308.516 51.8046 309.059 52.5042C309.292 52.9705 308.982 53.5924 308.438 53.5924C307.196 53.4369 306.031 52.7373 305.41 51.6491C304.633 49.8614 304.944 47.6073 306.419 46.2859Z" fill="#E57F45"/>
<path fill-rule="evenodd" clip-rule="evenodd" d="M121.683 11.8525C121.994 11.6971 122.305 11.5675 122.615 11.4639C122.848 11.9302 123.236 12.0857 123.625 12.3189C123.004 14.1066 121.14 15.1948 119.431 15.8167C124.945 19.0035 130.303 22.4236 135.739 25.6882C154.453 36.9588 173.09 48.4626 191.726 59.8886C193.357 61.1323 195.298 61.9096 196.774 63.231C195.919 63.6196 195.143 62.6869 194.366 62.3759C191.959 61.0546 189.785 59.5 187.378 58.1786C166.644 45.5866 145.911 32.9169 125.255 20.1694C123.159 18.9258 121.062 17.6044 118.966 16.283C118.577 15.5835 118.966 14.7285 119.431 14.1844C120.053 13.2516 120.907 12.5521 121.683 11.8525ZM121.373 12.9407C120.752 13.5625 120.053 14.1844 119.664 15.0394C120.752 14.573 121.683 13.718 122.615 13.0184C122.201 12.9666 121.787 12.9407 121.373 12.9407Z" fill="black"/>
<path d="M123.547 11.4639C125.178 11.9302 126.498 13.0962 127.895 13.9512C150.337 28.7973 172.779 43.7211 195.065 58.8004C196.618 59.8886 198.327 60.7437 199.647 62.065C199.336 62.8423 198.792 62.1428 198.327 61.9096C173.866 45.7421 149.483 29.4968 125.178 13.0184C124.556 12.6298 123.857 12.1634 123.547 11.4639Z" fill="black"/>
<path fill-rule="evenodd" clip-rule="evenodd" d="M104.134 36.0262C104.211 34.0829 104.833 31.9066 106.541 30.8184C106.696 30.9738 106.929 31.2847 107.085 31.4402C136.437 43.3326 165.712 55.536 194.988 67.6616C195.065 67.8171 195.221 68.128 195.298 68.2057C195.065 68.2057 194.599 68.2057 194.366 68.2057C165.247 56.2355 136.127 44.2654 107.085 32.062C106.774 33.3834 106.308 34.627 105.687 35.793C125.1 43.4881 144.591 51.1055 164.082 58.8783C171.847 61.9874 179.612 65.0966 187.378 68.2057C188.542 68.6721 189.707 69.0607 190.872 69.6048C190.613 69.9675 190.328 70.0712 190.018 69.9157C175.367 64.1638 160.743 58.4119 146.144 52.66C132.477 47.219 118.81 41.7781 105.143 36.4148C104.781 36.2593 104.444 36.1298 104.134 36.0262ZM104.91 35.4821C105.609 34.3939 106.075 33.1502 106.308 31.9066C105.532 32.917 104.833 34.1607 104.91 35.4821Z" fill="black"/>
<path d="M276.29 15.9726C279.008 14.9621 281.881 14.3403 284.599 13.2521C290.423 11.4643 296.324 9.75431 302.226 8.04429C305.565 7.26701 308.827 6.10108 312.166 5.47925C315.427 4.85743 318.533 3.53604 321.795 3.06967C327.619 1.74829 333.598 0.815548 339.577 0.193721C340.509 0.115993 341.441 -0.117195 342.217 0.349176C340.043 0.971002 337.791 0.971005 335.617 1.35965C329.948 2.13693 324.202 3.1474 318.689 4.62424C314.262 5.47925 310.069 7.03382 305.72 7.96656C302.847 8.51066 300.129 9.4434 297.334 10.2207C294.849 10.998 292.287 11.5421 289.879 12.4748C286.851 13.563 283.745 14.2626 280.716 15.3508C278.387 16.3612 275.902 16.7499 273.65 17.8381C272.174 18.3822 270.621 18.6931 269.146 19.3926C258.016 23.3827 246.989 27.7096 236.066 32.3733C228.611 35.4824 221.234 38.5915 213.935 42.0893C206.325 45.7426 198.87 49.7067 191.416 53.6708C191.338 53.5931 191.105 53.3599 191.027 53.2822C194.211 51.1835 197.628 49.629 200.967 47.8412C209.586 43.2552 218.361 38.9802 227.369 35.1715C240.182 29.6528 252.994 24.3672 266.118 19.6258C267.438 18.8485 269.068 18.6931 270.466 18.0712C272.33 17.1385 274.426 16.8276 276.29 15.9726Z" fill="black"/>
<path d="M286.075 17.3709C288.792 16.3604 291.433 15.1945 294.306 14.6504C294.694 14.7281 295.315 14.6504 295.16 15.1945C293.607 15.4277 292.054 15.8163 290.656 16.5159C287.472 17.5263 284.444 18.9254 281.415 20.2468C272.563 24.1332 263.711 27.8642 254.703 31.2843C253.538 31.8284 252.373 32.1393 251.131 32.3725C251.83 31.2843 253.305 31.2843 254.315 30.6624C264.953 26.4651 275.514 21.8791 286.075 17.3709Z" fill="black"/>
<path d="M344.858 0.11571C347.421 -0.195204 349.984 0.193433 352.546 0.426618C353.788 0.504347 355.031 0.737532 356.273 0.81526C360.001 1.43709 364.039 2.13664 366.989 4.70168C368.465 5.78988 369.319 7.4999 370.096 9.13219C370.303 9.54674 370.225 9.88357 369.863 10.1427C369.319 8.82128 368.62 7.57763 367.766 6.4117C366.058 4.54622 363.728 3.30256 361.321 2.68074C360.493 2.47346 359.664 2.26619 358.836 2.05892C358.163 1.95528 357.49 1.82573 356.817 1.67028C356.04 1.56664 355.264 1.46299 354.487 1.35936C351.304 1.04844 348.197 0.504349 345.014 0.659806C345.014 0.504349 344.936 0.193438 344.858 0.11571Z" fill="black"/>
<path d="M300.983 14.7291C302.381 14.185 303.779 13.4855 305.254 13.0968C309.551 11.8532 313.822 10.6354 318.067 9.44359C321.173 8.43312 324.357 8.04447 327.463 7.034C329.249 6.87855 330.957 6.33445 332.743 6.02353C338.257 5.01306 343.848 4.5467 349.439 4.70215C354.098 4.77988 358.912 5.86808 362.95 8.43312C363.494 8.89949 364.426 9.2104 364.426 9.98768C363.649 10.6095 363.339 9.44358 362.795 9.13267C358.369 6.41218 353.166 5.40171 348.041 5.47944C340.586 5.55717 333.132 6.56764 325.91 8.43312C322.804 8.82176 319.853 9.98768 316.825 10.6872C313.097 11.5422 309.37 12.3973 305.798 13.7964C304.4 14.185 302.925 14.8068 301.449 14.8846C301.372 14.8846 301.139 14.7291 300.983 14.7291Z" fill="black"/>
<path d="M296.945 22.1125C299.818 20.8688 302.614 18.9256 305.953 19.081C306.03 19.2365 306.341 19.4697 306.496 19.5474C302.924 19.5474 299.896 21.5684 296.79 22.8897C295.858 22.9675 294.615 23.5893 293.839 22.812C294.848 22.4234 296.013 22.6566 296.945 22.1125Z" fill="black"/>
<path d="M308.362 20.0917C310.536 18.8481 313.021 17.8376 315.661 17.9153C316.283 17.9931 317.292 17.8376 317.603 18.6149C315.118 18.304 312.555 18.5372 310.381 19.7808C307.663 21.1799 304.945 22.5013 302.15 23.6672C299.82 24.3668 297.646 25.6104 295.161 25.8436C294.462 25.8436 293.686 26.2323 293.22 25.6104C294.074 25.2218 295.083 25.2995 296.015 25.0663C297.879 24.7554 299.51 23.6672 301.373 23.2786C303.755 22.3458 306.084 21.2836 308.362 20.0917Z" fill="black"/>
<path d="M321.873 16.2832C321.795 15.2727 323.037 15.9723 323.659 15.8168C324.435 15.8168 325.186 15.8168 325.911 15.8168C329.948 15.7391 333.986 16.5164 338.024 16.1277C340.354 16.05 342.684 15.5059 345.013 15.8168C347.265 16.2054 349.284 17.5268 351.225 18.6928C352.313 19.3923 353.4 20.2473 354.176 21.3355C354.099 21.4132 353.866 21.5687 353.788 21.6464C352.39 20.0141 350.604 19.0037 348.818 17.9155C347.498 17.2159 346.178 16.5941 344.625 16.4386C342.451 16.1277 340.199 16.6718 337.947 16.7495C334.53 17.1382 331.113 16.5941 327.697 16.4386C325.755 16.3609 323.814 16.4386 321.873 16.2832Z" fill="black"/>
<path d="M280.64 29.886C282.814 29.1864 284.988 28.4869 287.24 28.0205C286.93 28.3314 286.619 28.7201 286.153 28.7978C284.445 29.4973 282.504 29.7305 280.873 30.6633C276.68 32.2178 272.486 33.7724 268.293 35.327C265.653 35.9488 263.168 37.1925 260.528 37.892C257.81 39.0579 254.937 39.6798 252.141 40.6125C250.355 41.3898 248.569 41.9339 246.706 42.4003C246.55 42.3225 246.317 42.0893 246.162 42.0116C248.103 40.8457 250.278 40.457 252.297 39.602C257.888 38.0475 263.246 35.7933 268.837 34.0833C270.545 33.306 272.409 32.9174 274.195 32.2178C276.214 31.2074 278.621 30.9742 280.64 29.886Z" fill="black"/>
<path d="M288.326 27.5537C288.482 27.6314 288.87 27.7869 289.025 27.8646C289.724 29.186 290.423 30.5851 290.967 31.9842C290.345 33.1502 289.025 33.1502 288.016 33.6943C286.23 34.5493 284.133 34.8602 282.27 35.7152C280.872 36.337 279.319 36.5702 277.921 37.2698C276.446 37.9693 274.815 38.2025 273.34 38.8243C270.932 39.9125 268.214 40.3012 265.807 41.3894C264.332 42.0112 262.701 42.3221 261.148 42.9439C263.322 42.7107 265.341 41.8557 267.438 41.3116C271.01 39.9125 274.893 39.6016 278.387 38.047C279.707 37.4252 281.26 37.2698 282.503 36.4925C283.357 36.1816 284.444 35.482 285.22 36.2593C283.279 36.6479 281.648 37.7361 279.785 38.2025C278.542 38.5134 277.455 39.213 276.213 39.5239C270.078 41.2339 263.866 43.0217 257.731 44.8094C256.489 45.1203 255.169 45.1981 253.926 45.509C253.926 45.3535 253.849 45.0426 253.849 44.9649C256.489 44.343 258.974 43.1771 261.459 42.0889C262.39 41.8557 263.245 41.6225 264.099 41.1562C265.962 40.3012 267.981 40.068 269.845 39.213C271.398 38.4357 273.184 38.2802 274.815 37.5029C275.98 36.8811 277.3 36.6479 278.542 36.1816C280.561 35.0934 282.891 34.8602 284.987 33.9274C286.696 33.0724 288.715 32.9947 290.268 31.8288C289.491 30.5074 288.948 28.9528 288.326 27.5537Z" fill="black"/>
<path d="M306.885 22.8899C308.361 21.8794 310.147 21.0244 312.011 21.3353C312.011 21.2576 312.088 20.9467 312.088 20.8689C313.175 20.7135 314.262 20.6357 315.35 20.6357C317.679 20.6357 319.232 22.7344 321.407 23.2785C322.028 23.5117 322.804 23.5894 323.193 24.2113C322.028 24.289 320.941 23.9003 319.853 23.434C318.533 22.8899 317.602 21.6462 316.204 21.3353C314.961 21.1798 313.719 21.2576 312.476 21.413C313.486 21.7239 314.495 21.8794 315.427 22.4235C316.281 23.0453 317.058 23.7449 317.835 24.5222C318.844 25.7658 320.319 27.0095 322.105 26.7763C323.658 26.9317 324.746 25.5326 326.066 24.8331C327.153 24.2112 328.395 23.9003 329.638 23.5894C330.026 23.434 330.414 23.7449 330.803 23.9003C328.706 24.4444 326.454 24.9885 324.746 26.5431C323.581 27.3981 322.183 27.4758 320.785 27.3981C318.611 26.854 317.446 24.8331 315.816 23.5117C314.495 22.3458 312.709 21.9571 311.001 21.8794C309.293 22.0349 307.895 22.9676 306.575 23.9003C305.643 24.5999 304.789 25.3772 304.323 26.3876C303.857 27.7867 304.323 29.2636 304.323 30.6627C304.245 30.8182 304.012 31.0513 303.935 31.1291C303.624 29.8077 303.469 28.4086 303.469 27.0095C303.857 25.144 305.41 23.8226 306.885 22.8899Z" fill="black"/>
<path d="M322.104 18.2266C324.356 18.2266 326.531 19.0038 328.783 19.237C331.656 19.5479 334.529 19.6257 337.324 19.0816C339.499 18.5375 341.673 18.6152 343.847 18.7707C344.934 18.9261 345.996 19.1075 347.031 19.3148C348.429 19.7811 349.827 20.403 350.758 21.5689C351.923 22.968 352.933 24.4448 353.476 26.1549C353.424 26.414 353.373 26.699 353.321 27.0099C352.933 26.2326 352.467 25.3776 352.156 24.6003C351.613 23.7453 351.069 23.0457 350.525 22.2684C350.37 22.1907 350.137 21.8798 350.059 21.7243C349.205 20.8693 348.04 20.3252 346.876 20.0143C343.381 19.1593 339.732 19.1593 336.315 20.0143C331.811 20.7139 327.307 19.7811 322.881 18.7707C322.57 18.7189 322.312 18.5375 322.104 18.2266Z" fill="black"/>
<path d="M181.01 60.2772C182.33 59.5776 183.418 58.4894 184.738 57.9453C185.281 58.5671 184.116 58.9558 183.806 59.3444C182.796 59.9663 181.942 60.7435 180.777 60.9767C180.855 60.8213 180.933 60.4326 181.01 60.2772Z" fill="black"/>
<path d="M211.839 52.6602C215.488 50.7947 219.138 48.5406 223.254 47.5301C225.661 46.9083 227.99 45.9755 230.475 45.6646C232.028 45.4314 233.504 44.8096 235.057 44.9651C234.358 46.0533 232.727 45.7424 231.562 46.131C228.456 47.0637 225.272 47.6078 222.322 48.696C218.594 49.7065 215.333 51.8829 211.994 53.5152C209.587 54.6811 207.568 56.3911 205.471 58.0234C203.763 59.4225 201.977 60.8217 200.579 62.6094C199.259 64.3194 197.628 65.7963 196.929 67.8949C196.386 69.4495 195.764 71.0818 195.842 72.7918C196.463 75.1237 197.084 77.6887 198.948 79.3987C201.355 82.3524 204.927 83.7515 208.266 85.3061C209.742 86.0056 211.45 85.9279 212.848 86.7052C212.615 86.7829 212.227 86.8607 211.994 86.8607C209.664 87.0161 207.49 86.0834 205.393 85.0729C203.297 83.9847 201.045 82.9742 199.492 81.1865C198.249 79.7874 196.619 78.466 196.23 76.6005C195.92 75.2014 194.988 74.0355 194.988 72.6364C194.833 70.7709 195.609 68.9054 196.23 67.1954C196.852 65.2522 198.405 63.8531 199.569 62.2985C201.588 59.7335 204.229 57.868 206.713 55.9248C208.344 54.6811 209.975 53.5152 211.839 52.6602Z" fill="black"/>
<path d="M296.168 28.0201C298.498 27.2428 300.594 25.8437 303.002 25.4551C303.157 25.5328 303.39 25.6883 303.545 25.8437C300.594 26.4655 298.032 28.2533 295.081 28.8751C295.392 28.5642 295.702 28.0978 296.168 28.0201Z" fill="black"/>
<path d="M238.006 44.8092C241.966 43.4101 246.315 44.3428 250.197 45.5865C254.08 46.9079 258.04 48.5402 261.069 51.4161C263.088 53.1261 264.796 55.2248 265.728 57.7121C267.359 61.1322 267.825 65.2518 266.582 68.8273C266.039 69.9155 265.728 71.1591 264.641 71.7809C264.563 70.9259 265.184 70.2264 265.495 69.4491C266.582 66.8841 266.427 63.9304 265.961 61.2099C265.573 60.044 264.951 58.878 264.563 57.7121C263.01 54.1366 259.904 51.4161 256.643 49.4729C251.75 46.9856 246.47 44.8092 240.957 44.9647C239.947 44.8869 239.015 45.3533 238.083 45.1201L238.006 44.8092Z" fill="black"/>
<path d="M321.64 20.9467C321.717 20.8689 321.95 20.7135 322.106 20.6357C323.193 20.7912 324.358 21.0244 325.445 21.1021C326.014 21.2058 326.584 21.2835 327.153 21.3353C327.671 21.3353 328.214 21.3612 328.784 21.413C328.706 21.5685 328.628 21.8017 328.628 21.9571C327.619 21.9571 326.609 21.8017 325.678 21.7239C325.005 21.6721 324.332 21.5944 323.659 21.4908C322.986 21.3871 322.313 21.2057 321.64 20.9467Z" fill="black"/>
<path d="M173.865 65.5632C174.124 65.356 174.357 65.1487 174.564 64.9414C175.108 65.33 174.642 65.641 174.409 66.0296C174.176 66.1073 173.788 66.1851 173.555 66.2628C173.632 66.1073 173.788 65.7964 173.865 65.5632Z" fill="black"/>
<path d="M293.684 32.2177C296.013 30.5854 298.886 30.1968 301.604 29.3418C301.527 29.4973 301.527 29.8082 301.527 29.9636C299.663 30.5855 297.799 30.9741 295.936 31.5959C295.237 31.8291 294.538 32.5287 293.684 32.2177Z" fill="black"/>
<path d="M170.76 67.9726C171.149 67.584 171.615 67.4285 172.158 67.1953C172.003 67.7394 171.692 68.1281 171.304 68.439C168.974 70.3822 166.722 72.4808 164.548 74.5795C161.287 77.7664 158.025 81.031 155.463 84.8397C154.298 86.5497 153.288 88.4929 153.521 90.5916C153.521 91.4466 154.143 91.9907 154.609 92.6125C154.531 92.768 154.376 93.0011 154.298 93.1566C153.832 92.6902 153.133 92.3016 152.978 91.5243C152.279 89.5034 153.056 87.327 154.065 85.5392C156.861 80.8755 160.821 76.9891 164.781 73.1804C165.195 72.8177 165.609 72.429 166.024 72.0145C167.525 70.6154 169.104 69.2681 170.76 67.9726Z" fill="black"/>
<path d="M335.927 20.947C337.402 20.7138 338.878 20.7915 340.353 20.947C340.974 21.0247 341.673 21.1024 342.294 21.1802C345.245 21.4133 348.274 22.5015 350.37 24.6779C350.991 25.4552 351.457 26.3362 351.768 27.3207C352.079 27.7094 351.846 28.1757 351.535 28.4866C351.38 27.0098 350.448 25.6884 349.438 24.6002C347.575 23.0457 345.245 22.0352 342.838 21.802C342.061 21.7502 341.285 21.6724 340.508 21.5688C340.042 21.517 339.602 21.4652 339.188 21.4133C338.101 21.3356 337.092 21.3356 336.082 21.3356L335.927 20.947Z" fill="black"/>
<path d="M297.178 33.8498C297.877 32.7616 299.197 32.373 300.129 31.5957C300.206 31.7512 300.284 32.0621 300.362 32.2175C299.352 32.8393 298.42 33.6166 297.178 33.8498Z" fill="black"/>
<path d="M285.686 36.0264C287.239 36.1041 286.462 37.8918 287.006 38.8246C285.919 40.3014 284.133 41.0787 282.424 41.7005C280.561 42.6333 278.464 42.9442 276.523 43.7992C275.203 44.421 273.727 44.6542 272.407 45.276C269.922 46.442 267.204 46.6751 264.642 47.6079C262.856 48.2297 260.915 48.6184 259.129 49.3179C258.87 49.1625 258.637 49.0329 258.43 48.9293C260.216 48.3074 261.924 47.3747 263.788 46.9083C266.816 46.0533 269.845 45.276 272.795 44.3433C275.436 43.0219 278.386 42.711 281.027 41.3896C282.968 40.9232 284.754 39.9905 286.307 38.7469C286.074 37.8141 286.307 36.8037 285.686 36.0264Z" fill="black"/>
<path d="M294.849 34.1606C294.849 34.0052 294.849 33.772 294.849 33.6165C295.626 33.3834 296.325 33.1502 297.101 32.917C297.257 34.0052 295.626 33.772 294.927 34.1606C296.558 34.4716 298.421 35.0934 299.897 34.0829C300.052 34.1606 300.285 34.3161 300.363 34.3938C298.81 35.7152 296.635 35.2488 294.849 34.8602C293.063 34.627 291.433 35.482 290.113 36.5702C288.637 37.9693 288.016 39.9903 288.016 41.9335C287.938 42.8662 288.715 43.488 289.181 44.1876C289.569 44.9649 289.491 45.8199 289.569 46.6749C289.414 46.9858 289.155 47.219 288.792 47.3745C288.792 46.2863 289.181 44.9649 288.327 44.1099C287.628 43.3326 287.162 42.2444 287.317 41.1562C287.472 39.2907 288.249 37.4252 289.647 36.0261C291.044 34.8602 292.908 34.0052 294.849 34.1606Z" fill="black"/>
<path d="M368.929 13.718C369.318 13.0962 369.55 12.2412 370.249 11.8525C370.016 13.7957 368.774 15.3503 367.532 16.7494C365.901 18.4595 364.27 20.1695 362.562 21.8795C361.475 22.9159 360.362 23.9263 359.223 24.9109C358.601 25.4291 357.98 25.9473 357.359 26.4655C353.399 29.4192 349.128 31.9842 344.935 34.7047C333.597 41.778 322.105 48.7735 310.068 54.6809C302.148 58.645 294.072 62.2983 286.229 66.3401C283.977 67.4283 281.725 68.8274 279.24 69.3715C279.24 69.2161 279.163 68.9052 279.085 68.8274C280.871 68.3611 282.424 67.5061 283.977 66.7288C294.383 61.2101 305.176 56.5464 315.659 51.1054C323.813 46.7526 331.734 42.0111 339.654 37.192C339.344 36.7256 338.955 36.337 338.955 35.8706C339.188 33.7719 339.576 31.6733 338.722 29.6523C338.334 29.0305 337.868 28.331 337.325 27.7869C336.393 27.0873 335.228 26.7764 334.296 25.9991C336.082 25.9214 337.713 27.0873 338.722 28.4864C339.965 29.9633 339.887 31.9842 339.887 33.7719C339.732 34.7824 339.266 36.0261 340.198 36.8033C346.099 33.1501 352.079 29.4969 357.747 25.3773C359.818 23.6673 361.785 21.8536 363.649 19.9363C364.115 19.4181 364.607 18.8999 365.124 18.3817C366.522 16.9049 367.997 15.5835 368.929 13.718Z" fill="black"/>
<path d="M373.666 11.1535C373.744 10.998 373.977 10.7648 374.055 10.6094C375.53 16.9054 375.996 23.4346 375.841 29.9637C375.685 36.0265 374.676 42.0116 373.433 47.9967C371.57 56.8577 368.697 65.4856 364.814 73.6471C361.087 81.8863 356.039 89.5037 350.526 96.6547C347.653 100.386 344.78 104.117 341.208 107.226C341.13 107.148 341.052 106.993 340.975 106.915C342.139 105.283 343.615 103.883 344.935 102.407C350.759 95.411 356.117 88.0268 360.621 80.1763C366.445 69.5275 370.793 57.946 373.045 45.9758C374.288 39.7575 375.142 33.3838 375.064 27.0101C375.142 21.6468 374.365 16.3613 373.666 11.1535Z" fill="black"/>
<path d="M301.373 33.1507C301.58 32.6843 301.813 32.192 302.072 31.6738C302.15 31.907 302.305 32.2957 302.383 32.5288C302.175 32.8398 301.994 33.1507 301.839 33.4616C301.684 33.3839 301.451 33.2284 301.373 33.1507Z" fill="black"/>
<path d="M331.812 23.2012C332.588 23.2012 333.442 23.2789 334.219 23.3566C336.937 24.0562 339.887 24.8335 341.829 27.0876C341.906 27.1653 342.139 27.4762 342.295 27.554C343.537 29.4194 344.857 31.1295 346.022 32.9949C345.608 32.8395 345.22 32.6322 344.857 32.3731C343.382 30.4299 342.372 28.1758 340.509 26.6212C339.422 25.6885 338.024 25.2221 336.704 24.7557C335.228 24.2116 333.598 23.6675 331.889 23.823C331.889 23.6675 331.812 23.3566 331.812 23.2012Z" fill="black"/>
<path d="M245.695 49.2406C246.549 49.2406 247.326 49.1629 248.18 49.2406C248.698 49.3442 249.241 49.4479 249.811 49.5515C251.131 50.0179 252.995 50.1733 253.616 51.5725C251.131 50.4843 248.491 49.707 245.773 49.707C245.773 49.6292 245.695 49.3183 245.695 49.2406Z" fill="black"/>
<path d="M217.895 57.868C218.438 57.4793 218.749 58.4121 218.283 58.6453C217.739 59.0339 217.351 58.1012 217.895 57.868Z" fill="black"/>
<path d="M371.492 14.6513C371.647 14.5736 371.88 14.3404 371.958 14.2627C371.958 14.8845 371.802 15.5063 371.414 15.895C369.473 18.1491 367.532 20.4032 365.357 22.3464C364.891 22.761 364.451 23.1755 364.037 23.5901C363.571 23.9528 363.131 24.3415 362.717 24.756C361.682 25.6369 360.646 26.5179 359.611 27.3988C356.505 29.8084 353.399 32.1402 350.06 34.1612C349.982 34.0834 349.827 33.928 349.749 33.7725C352.855 31.5961 355.961 29.4975 358.912 27.0879C359.689 26.466 360.465 25.8442 361.242 25.1447C363.261 23.4346 365.28 21.6469 367.143 19.7814C368.619 18.0714 370.327 16.5945 371.492 14.6513Z" fill="black"/>
<path d="M231.174 57.7905C232.571 56.5469 234.28 55.4586 236.221 55.3809C239.25 54.8368 242.511 54.6814 245.307 56.1582C247.481 57.4019 249.5 59.1896 250.199 61.6769C250.121 61.5992 249.81 61.5992 249.655 61.5215C248.335 59.1896 246.161 57.1687 243.521 56.3137C241.424 55.5364 239.172 55.7696 236.998 55.925C235.289 56.3137 233.581 56.7023 232.339 57.8682C229.698 60.1223 227.757 63.2315 227.291 66.6515C227.369 68.7502 227.058 71.0821 228.145 72.9475C228.534 74.3466 230.242 74.6576 230.863 75.9012C229.698 75.5126 228.456 74.8907 227.757 73.8803C226.282 71.6262 226.282 68.8279 226.359 66.1852C226.981 62.9206 228.844 60.0446 231.174 57.7905Z" fill="black"/>
<path d="M342.684 25.9218C343.693 25.7663 344.47 26.5436 345.401 26.7768C346.799 27.4763 348.508 27.7872 349.672 28.8754C348.818 29.2641 348.119 28.4868 347.343 28.3313C345.79 27.554 343.926 27.1654 342.684 25.9218Z" fill="black"/>
<path d="M262.701 50.0948C262.779 49.9394 262.779 49.5507 262.856 49.3953C265.807 48.8512 268.603 50.5612 271.243 51.6494C273.495 52.5821 275.824 53.8258 278.309 54.059C279.474 54.1367 280.639 53.9812 281.881 53.8258C281.648 54.2922 281.415 54.6808 280.872 54.6808C277.222 55.3804 273.728 53.5926 270.466 52.1935C268.525 51.3385 266.661 50.4057 264.565 50.0171C263.944 49.9394 263.322 49.9394 262.701 50.0948Z" fill="black"/>
<path d="M279.786 45.1978C280.873 44.6537 282.037 44.4982 283.202 44.3428C283.461 44.4464 283.746 44.576 284.056 44.7314C281.96 45.2755 279.863 45.6642 278 46.7524C275.282 48.2292 272.331 50.0169 269.147 49.5506C268.604 49.3951 267.594 49.2397 268.06 48.5401C268.759 48.6956 269.38 49.0065 270.157 49.0065C271.166 48.7733 272.176 48.4624 273.185 48.1515C275.592 47.5296 277.534 45.9751 279.786 45.1978Z" fill="black"/>
<path d="M298.655 41.5445C299.742 40.6118 300.906 39.6013 302.227 38.9018C303.624 38.4354 305.022 37.969 306.497 37.7359C308.905 37.5804 311.312 37.5804 313.642 36.8808C316.359 36.1036 319 35.2486 321.795 34.8599C323.581 34.2381 325.445 34.0826 327.308 34.3158C327.541 34.3935 327.852 34.4713 328.007 34.4713C329.483 34.7045 330.57 36.0258 330.958 37.4249C331.424 38.7463 331.346 40.1454 331.735 41.4668C331.657 41.6223 331.424 41.8555 331.346 42.0109C330.415 40.1454 331.036 37.8136 329.638 36.1813C329.172 35.404 328.396 35.0931 327.541 34.9376C327.386 34.8599 326.998 34.8599 326.842 34.7822C324.746 34.549 322.805 35.2485 320.708 35.5595C317.99 36.1813 315.35 37.114 312.632 37.8136C309.914 38.5909 306.886 37.8913 304.168 38.9018C301.916 39.3682 300.208 41.0004 298.577 42.555C296.092 45.2755 295.315 49.0842 295.859 52.6597C296.325 54.5252 298.189 55.6134 298.887 57.4011C297.49 57.0125 296.713 55.7688 295.937 54.6806C294.617 52.6597 294.85 50.0947 295.16 47.7628C295.704 45.431 296.869 43.2546 298.655 41.5445Z" fill="black"/>
<path d="M301.916 40.6118C302.925 39.9123 304.09 39.5236 305.255 39.3682C307.74 39.2904 310.225 39.0573 312.787 38.9795C314.495 38.9018 316.126 38.1245 317.757 37.6581C319.543 37.1918 321.174 36.1036 323.037 35.9481C324.59 35.7927 326.299 35.6372 327.696 36.4922C329.249 37.2695 329.793 38.9795 330.492 40.4564C330.802 41.1559 330.725 41.8555 330.647 42.555C330.181 42.1664 330.104 41.5446 329.948 41.0005C329.482 39.99 329.094 38.9018 328.473 37.9691C326.842 36.1036 324.202 36.4145 322.028 36.8031C320.941 37.1141 319.931 37.7359 318.844 37.9691C316.98 38.3577 315.35 39.5236 313.408 39.5236C310.69 39.7568 307.973 39.8345 305.177 39.99C304.401 40.1455 303.546 40.3009 302.848 40.7673C301.139 42.0887 299.586 43.721 298.421 45.5087C298.033 46.4415 297.878 47.3742 297.567 48.3069C297.024 49.7838 297.645 51.3383 298.188 52.7375C298.965 54.2143 300.596 54.7584 301.683 55.9243C301.32 55.9761 300.984 55.9243 300.673 55.7689C299.431 55.0693 298.188 54.1366 297.567 52.8152C297.205 51.9343 296.946 51.0274 296.791 50.0947C296.635 49.0842 297.024 48.1515 297.256 47.2187C297.722 44.4205 300.052 42.4773 301.916 40.6118Z" fill="black"/>
<path d="M263.866 52.0381C264.022 52.0381 264.332 52.0381 264.487 52.0381C267.594 53.3595 270.933 54.2922 274.194 55.5359C276.213 56.2354 278.31 57.0904 280.484 57.2459C281.027 57.3236 281.804 56.8572 282.115 57.4791C281.493 57.7123 280.794 58.0232 280.096 57.8677C277.533 57.5568 275.126 56.6241 272.796 55.769C270.078 54.7586 267.205 54.059 264.643 52.7376C264.332 52.5304 264.073 52.2972 263.866 52.0381Z" fill="black"/>
<path d="M182.642 77.3003C185.592 75.8234 188.698 74.5798 191.727 73.1807C191.882 73.2584 192.193 73.3361 192.27 73.4138C191.572 73.9579 190.795 74.2689 189.941 74.6575C187.145 75.9012 184.35 77.2225 181.632 78.6994C177.672 80.798 173.711 83.0522 170.372 86.0836C169.363 87.094 168.276 88.1822 167.965 89.6591C168.12 90.4363 168.975 90.825 169.674 90.9805C171.692 91.2914 173.711 91.2136 175.73 91.2914C178.06 91.3691 180.39 91.6023 182.642 90.9027C185.282 90.5141 187.844 89.6591 190.407 88.8818C192.581 87.9491 194.755 87.3272 197.007 86.7831C195.765 88.26 193.668 88.1045 192.115 88.9595C188.31 90.2809 184.505 91.4468 180.623 91.9909C177.905 92.2241 175.109 91.9132 172.391 91.9132C170.916 91.8355 169.363 91.9132 168.12 90.9805C167.422 90.5141 167.189 89.5813 167.499 88.8041C168.353 86.7831 170.062 85.384 171.692 83.9849C175.032 81.3421 178.914 79.3212 182.642 77.3003Z" fill="black"/>
<path d="M274.505 50.1722C277.223 48.3067 280.407 47.4517 283.591 47.2185C284.29 47.2185 285.299 46.9853 285.532 47.8403C283.668 47.7626 281.882 48.1512 280.096 48.4622C278.077 48.9285 276.291 50.0945 274.272 50.794C274.35 50.6386 274.428 50.3276 274.505 50.1722Z" fill="black"/>
<path d="M193.746 74.3466C193.513 73.9579 193.824 73.5693 193.979 73.1807C194.522 74.8907 195.299 76.6007 195.92 78.3107C196.93 80.2539 198.25 82.1971 199.337 84.1404C199.958 85.3063 200.89 86.1613 201.822 87.094C202.443 87.7936 203.142 88.3377 203.53 89.1927C202.288 88.9595 201.666 87.7936 200.812 87.094C200.553 86.8349 200.32 86.5758 200.113 86.3168C200.036 86.239 199.725 85.9281 199.647 85.8504C198.172 83.5963 196.774 81.3421 195.454 79.088C194.911 77.5334 194.056 76.0566 193.746 74.3466Z" fill="black"/>
<path d="M190.095 76.4449C190.717 76.2117 191.338 75.9008 191.959 75.5898C192.037 75.6676 192.27 75.9008 192.347 75.9785C191.648 76.4449 191.027 76.8335 190.251 77.0667C186.989 78.3881 183.961 80.1758 180.855 81.8858C179.043 82.8704 177.309 84.0104 175.652 85.3059C174.72 86.1609 173.4 86.9382 173.089 88.2596C174.177 88.8814 175.497 88.6482 176.739 88.5705C180.078 88.2596 183.417 87.9487 186.756 87.4046C189.241 86.705 191.804 86.0832 194.211 85.2282C195.143 84.7618 195.919 84.14 196.774 83.5959C196.929 83.6736 197.084 83.829 197.24 83.9068C196.075 84.7618 194.91 85.7723 193.512 86.1609C191.234 86.8864 188.931 87.5341 186.601 88.1041C182.822 88.6741 179.017 89.0628 175.186 89.27C174.254 89.27 173.012 89.3478 172.624 88.2596C172.391 87.3268 173.322 86.6273 173.866 86.0055C176.584 83.5959 179.612 81.8081 182.718 80.0981C185.048 78.699 187.533 77.4553 190.095 76.4449Z" fill="black"/>
<path d="M283.357 51.7271C284.289 49.7061 286.541 49.0843 288.327 47.9961C288.405 48.0738 288.483 48.3847 288.56 48.5402C287.395 49.2397 286.153 49.7839 285.066 50.6389C284.212 51.3384 283.746 52.3489 283.513 53.4371C283.59 54.3698 283.513 55.458 283.979 56.313C285.609 58.2562 288.56 58.6449 289.88 60.899C289.104 61.1322 288.56 60.3549 288.017 59.9663C286.541 58.7226 284.445 58.2562 283.357 56.5462C282.736 55.0694 282.503 53.2039 283.357 51.7271Z" fill="black"/>
<path d="M242.977 62.298C243.339 62.0389 243.52 62.1425 243.52 62.6089C243.158 62.868 242.977 62.7644 242.977 62.298Z" fill="black"/>
<path d="M237.308 64.5529C237.463 64.0088 238.24 64.3197 238.007 64.8638C237.851 65.3301 237.075 64.9415 237.308 64.5529Z" fill="black"/>
<path d="M188.776 79.7099C189.941 79.399 191.028 78.9326 192.115 78.5439C192.348 78.6217 192.659 78.7771 192.892 78.8549C188.388 80.5649 183.884 82.4304 179.846 85.0731C179.38 85.4618 178.448 85.9281 178.759 86.6277C179.147 86.8609 179.535 86.9386 180.001 87.0163C181.943 87.0163 183.729 86.2391 185.67 85.7727C188.621 84.9954 191.572 83.9849 194.6 83.2854C194.367 83.8295 193.901 84.1404 193.28 84.2181C189.63 85.3063 185.903 86.3945 182.176 87.405C181.554 87.4827 180.856 87.4827 180.157 87.6382C179.535 87.5345 178.914 87.3791 178.293 87.1718C178.189 86.8091 178.086 86.4463 177.982 86.0836C178.293 85.695 178.604 85.2286 179.07 84.9177C182.02 82.7413 185.437 81.2644 188.776 79.7099Z" fill="black"/>
<path d="M303.623 49.2404C303.933 47.6081 305.176 46.1312 306.807 45.6649C309.059 45.2762 311.388 46.2867 313.64 45.9758C315.038 45.6649 315.97 44.4212 317.29 43.9548C318.998 43.333 321.017 42.5557 322.881 43.4885C323.58 43.7216 323.58 44.5767 323.735 45.1208C323.373 44.8099 323.036 44.473 322.725 44.1103C321.871 43.8771 321.017 43.4885 320.163 43.7217C318.92 44.0326 317.678 44.3435 316.669 45.043C315.814 45.5094 315.115 46.2867 314.184 46.5199C311.621 47.3749 308.903 45.5871 306.418 46.5976C304.322 47.5303 303.7 50.4063 304.943 52.3495C305.409 53.0491 306.185 53.2822 306.884 53.6709C306.651 53.7486 306.263 53.9041 306.03 53.9818C305.357 53.6709 304.762 53.2563 304.244 52.7381C303.933 51.5722 303.39 50.4063 303.623 49.2404Z" fill="black"/>
<path d="M369.162 29.9635C369.24 29.3417 369.162 28.5644 369.706 28.1758C370.094 29.6526 369.706 31.2072 369.473 32.684C367.687 41.2342 365.59 49.6288 362.562 57.7903C360.698 63.1536 358.602 68.5168 356.117 73.5692C352.001 82.4302 346.798 90.7471 340.431 98.1313C339.266 99.375 338.101 100.696 336.626 101.629C336.704 101.474 336.781 101.085 336.781 100.93C343.382 94.0894 348.74 86.1611 353.011 77.6888C356.738 70.5377 359.766 63.0758 362.407 55.4584C364.969 48.3852 366.755 41.001 368.464 33.6945C368.697 32.4508 368.93 31.2072 369.162 29.9635Z" fill="black"/>
<path d="M242.278 65.2521C242.641 64.993 242.822 65.0966 242.822 65.563C242.459 65.8221 242.278 65.7184 242.278 65.2521Z" fill="black"/>
<path d="M267.826 58.7227C270.388 59.0336 272.951 59.1113 275.513 58.9558C276.134 58.9558 276.833 58.6449 277.144 59.2668C274.581 60.044 271.864 59.7331 269.146 59.5777C268.757 59.3445 267.204 59.4222 267.826 58.7227Z" fill="black"/>
<path d="M185.98 83.6742C187.844 81.9641 190.407 81.1091 192.892 80.4873C192.969 80.565 193.28 80.876 193.357 80.9537C191.261 81.4978 189.164 82.1973 187.301 83.441C189.475 82.9746 191.494 82.4305 193.59 81.9641C193.435 82.4305 193.047 82.7414 192.581 82.8192C190.484 83.3633 188.388 84.0628 186.213 84.296C186.136 84.1405 185.98 83.8296 185.98 83.6742Z" fill="black"/>
<path d="M344.314 37.1918C344.677 37.0881 345.039 36.9845 345.401 36.8809C345.324 37.0363 345.169 37.3472 345.091 37.5804C339.422 41.1559 333.676 44.8092 327.852 48.1515C326.454 48.851 325.212 49.8615 323.736 50.2501C323.814 50.0947 324.047 49.7838 324.202 49.6283C330.958 45.5864 337.869 41.7 344.314 37.1918Z" fill="black"/>
<path d="M267.358 59.4219C267.514 59.4996 267.902 59.6551 268.057 59.7328C268.523 61.2096 269.3 62.531 269.61 64.0079C270.154 65.407 270.154 66.9615 270.542 68.3606C270.464 68.5938 270.309 69.0602 270.232 69.2934C269.688 68.7493 269.766 67.972 269.61 67.2724C268.911 64.6297 268.135 62.0646 267.358 59.4219Z" fill="black"/>
<path d="M306.963 48.5403C308.051 47.4521 309.759 47.6075 311.157 47.9185C312.321 48.2294 313.486 47.6075 314.729 47.2966C316.592 46.8303 318.223 45.3534 320.242 45.2757C321.329 45.198 322.882 45.5089 322.96 46.908C322.183 46.5193 321.407 45.7421 320.475 45.9753C318.844 45.9753 317.447 46.8303 316.049 47.5298C314.755 47.9962 313.434 48.3589 312.089 48.618C310.768 48.618 309.293 48.0739 307.973 48.618C307.507 48.9289 306.963 49.2398 306.963 49.8617C306.575 50.9499 307.973 51.3385 308.516 52.0381C307.507 52.349 306.73 51.4162 306.265 50.639C306.187 49.9394 306.342 49.0066 306.963 48.5403Z" fill="black"/>
<path d="M250.821 64.6304C250.976 64.5527 251.209 64.3195 251.287 64.1641C251.597 66.1073 251.986 68.0505 251.597 70.0714C251.287 72.8696 249.734 75.5124 247.327 77.067C243.91 79.3988 239.639 80.2538 235.523 79.8652C234.048 79.5543 232.65 79.0102 231.485 78.0774V77.6111C232.883 78.1552 234.203 78.9325 235.679 79.1656C239.794 79.3988 244.143 78.3106 247.482 75.8233C249.811 74.0356 250.821 71.0819 251.054 68.2059C251.209 67.04 250.976 65.7964 250.821 64.6304Z" fill="black"/>
<path d="M241.501 68.2838C241.915 68.0247 242.096 68.1543 242.044 68.6725C241.579 68.9316 241.397 68.802 241.501 68.2838Z" fill="black"/>
<path d="M155.928 93.2345C156.704 93.0013 157.481 93.3122 158.257 93.5454C159.603 93.8045 160.975 94.0636 162.373 94.3227C168.43 94.8668 174.564 94.7113 180.621 94.0895C190.561 93.39 200.345 91.7577 210.052 89.5813C211.087 89.4776 212.097 89.2703 213.08 88.9594C214.556 88.4931 216.109 88.4153 217.662 87.949C221.234 86.9385 224.883 85.928 228.533 85.073C232.26 84.218 235.755 82.7412 239.482 81.7307C242.433 80.798 245.461 80.0984 248.335 78.9325C250.897 77.9997 253.537 77.5334 256.1 76.5229C258.352 75.5124 260.837 75.1238 263.166 74.1133C265.418 73.1806 267.981 72.8697 270.233 71.7037C272.329 70.9265 274.659 70.4601 276.755 69.5273L276.911 69.9937C276.212 70.2269 275.591 70.4601 274.969 70.771C273.494 71.4706 271.786 71.7037 270.31 72.4033C268.369 73.336 266.195 73.647 264.176 74.502C262.157 75.4347 259.982 75.7456 257.886 76.6006C255.401 77.6888 252.605 78.0775 250.121 79.2434C246.937 80.3316 243.675 81.1089 240.492 82.1971C236.997 83.5185 233.425 84.3735 229.853 85.4617C226.592 86.3167 223.33 87.4049 219.914 88.0267C217.506 88.5708 215.177 89.5035 212.692 89.7367C210.751 90.3585 208.732 90.514 206.868 91.0581C200.889 92.224 194.987 93.3122 188.93 94.0118C183.262 94.6336 177.67 95.2554 171.924 95.4109C167.032 95.4109 161.985 95.4109 157.248 93.8563C156.782 93.7786 156.394 93.4677 155.928 93.2345Z" fill="black"/>
<path d="M235.834 71.1593C236.3 70.8484 236.507 70.952 236.455 71.4702C236.041 71.7811 235.834 71.6775 235.834 71.1593Z" fill="black"/>
<path d="M269.457 62.4539C272.02 62.143 274.582 61.9875 276.989 60.8216C277.999 60.2775 279.086 59.9666 280.251 59.7334C280.173 59.8889 280.018 60.1998 279.94 60.3552C276.834 61.7543 273.495 62.998 270.078 62.9203C269.923 62.7648 269.612 62.5316 269.457 62.4539Z" fill="black"/>
<path d="M156.239 95.9551C157.093 96.5769 157.404 97.6651 158.025 98.5201C159.734 101.163 161.908 103.417 163.927 105.749C166.645 109.091 169.363 112.511 172.236 115.62C176.507 120.051 181.166 123.937 186.213 127.357C195.454 133.653 205.549 139.017 216.575 141.582C218.051 141.893 219.526 142.281 221.079 142.592C222.115 142.799 223.15 142.981 224.185 143.136C225.065 143.343 225.971 143.525 226.903 143.68C227.99 143.836 229.155 143.991 230.242 144.147C231.795 144.302 233.348 144.535 234.902 144.613C240.57 145.157 246.394 145.857 252.063 145.157C252.529 145.002 252.917 145.235 253.228 145.39C251.675 146.09 249.966 146.012 248.258 146.09C242.201 146.245 236.144 145.39 230.087 144.846C228.767 144.613 227.447 144.458 226.127 144.224C225.402 144.121 224.703 143.991 224.03 143.836C223.668 143.784 223.305 143.732 222.943 143.68C222.529 143.577 222.089 143.473 221.623 143.369C220.147 143.058 218.594 142.748 217.119 142.359C216.291 142.203 215.488 142.022 214.712 141.815C205.238 139.405 196.386 134.819 188.232 129.534C182.253 125.647 176.662 121.295 171.77 116.164C171.356 115.698 170.942 115.258 170.527 114.843C169.596 113.755 168.586 112.589 167.654 111.423C165.092 108.314 162.451 105.127 159.811 102.018C158.336 100.23 156.628 98.2869 156.239 95.9551Z" fill="black"/>
<path d="M277.144 63.1532C279.473 61.9873 281.803 60.7437 284.133 59.5C284.288 59.6555 284.521 59.8886 284.676 59.9664C281.104 61.7541 277.765 64.086 273.805 64.7078C273.65 64.6301 273.339 64.4746 273.184 64.3192C274.504 63.8528 275.901 63.6196 277.144 63.1532Z" fill="black"/>
<path d="M157.715 95.9545C158.569 95.7991 159.346 96.1877 160.122 96.4209C162.918 97.1982 165.868 97.2759 168.819 97.1205C180.622 96.8095 192.503 96.0323 204.229 94.3222C204.85 94.2445 205.394 94.0891 206.015 93.9336C205.963 94.4 205.73 94.6591 205.316 94.7109C201.822 95.4104 198.327 95.7991 194.755 96.11C187.145 96.965 179.535 97.4314 171.925 97.7423C168.509 97.82 165.014 98.1309 161.597 97.4314C160.277 97.1205 158.802 96.8873 157.715 95.9545Z" fill="black"/>
<path d="M272.718 68.361C277.61 66.8065 282.58 65.0964 286.695 61.9873C286.851 62.8423 285.919 63.3087 285.375 63.7751C283.123 65.1742 280.794 66.2624 278.309 67.1174C276.6 67.9724 274.737 68.4388 272.951 68.8274C272.873 68.7497 272.795 68.5165 272.718 68.361Z" fill="black"/>
<path d="M193.59 89.6592C195.609 89.0374 197.783 88.571 199.647 87.5605C199.647 87.716 199.569 88.0269 199.569 88.1824C197.24 89.426 194.6 90.0479 192.037 90.6697C192.192 89.9701 192.969 89.8924 193.59 89.6592Z" fill="black"/>
<path d="M175.575 112.511C175.264 112.122 174.488 111.423 175.419 111.656C179.38 115.076 184.039 117.486 188.543 119.973C201.123 126.269 214.168 131.71 227.913 134.819C230.165 135.285 232.417 135.674 234.746 136.063C236.222 136.296 237.697 136.451 239.172 136.762C239.845 136.814 240.518 136.892 241.191 136.995C242.356 137.151 243.599 137.229 244.841 137.384C245.721 137.436 246.601 137.514 247.481 137.617C248.335 137.617 249.19 137.695 250.044 137.85C249.5 138.394 248.646 138.317 247.869 138.317C245.152 138.161 242.434 137.928 239.716 137.539C233.581 136.762 227.447 135.752 221.468 134.042C210.907 131.166 200.734 126.813 190.95 121.994C185.67 119.118 180.079 116.475 175.575 112.511Z" fill="black"/>
<path d="M324.202 111.966C327.308 109.868 330.104 107.38 332.744 104.815C332.822 105.204 332.899 105.748 332.511 106.059C330.647 108.158 328.473 109.868 326.221 111.578C324.979 112.433 323.814 113.366 322.416 113.754C322.727 112.899 323.581 112.511 324.202 111.966Z" fill="black"/>
<path d="M336.472 110.723C337.249 110.179 337.948 109.557 338.802 109.324C338.569 110.179 337.637 110.49 337.016 111.112C332.822 114.765 328.396 118.185 323.737 121.294C318.69 124.714 313.409 127.668 307.974 130.389C301.994 133.265 296.093 136.14 289.88 138.317C288.25 139.172 286.308 139.405 284.6 140.182C282.27 141.037 279.863 141.737 277.378 142.203C275.437 142.592 273.573 143.292 271.632 143.525C267.491 144.457 263.323 145.131 259.13 145.546C259.208 145.468 259.285 145.157 259.363 145.079C263.478 144.302 267.672 143.836 271.787 142.747C274.195 142.514 276.369 141.659 278.698 141.115C288.172 138.706 297.18 134.819 305.877 130.544C314.496 126.424 322.65 121.605 330.182 115.776C331.036 115.076 331.968 114.454 332.822 113.755C333.34 113.288 333.884 112.848 334.453 112.433C335.126 111.863 335.799 111.293 336.472 110.723Z" fill="black"/>
<path d="M334.53 114.688C336.782 115.232 337.326 117.719 338.646 119.273C339.112 119.792 339.448 120.388 339.655 121.061C339.5 120.984 339.112 120.906 338.956 120.906C338.542 120.336 338.128 119.766 337.714 119.196C336.705 117.952 336.239 116.32 334.763 115.465C334.763 115.309 334.608 114.921 334.53 114.688Z" fill="black"/>
<path d="M254.702 138.861C254.857 138.705 255.168 138.55 255.323 138.394C256.566 138.394 257.808 138.394 259.051 138.394C259.439 138.317 259.827 138.472 260.06 138.861C258.274 139.016 256.488 139.249 254.702 138.861Z" fill="black"/>
<path d="M333.754 120.128C333.365 119.429 332.899 118.574 333.831 118.107C334.142 119.351 335.384 120.983 334.297 122.149C332.822 123.937 330.88 125.181 329.094 126.58C327.852 127.435 326.687 128.601 325.289 129.067C325.212 128.601 325.6 128.29 325.911 127.979C328.24 126.113 330.725 124.403 332.977 122.382C333.521 121.838 334.375 120.983 333.754 120.128Z" fill="black"/>
<path d="M337.868 122.849C338.411 122.46 339.032 122.071 339.731 121.916C339.576 122.279 339.369 122.564 339.11 122.771C334.761 126.036 330.646 129.533 326.297 132.72C316.901 139.871 306.263 145.312 295.159 148.965C291.121 150.209 287.005 151.375 282.889 152.463C281.414 152.852 279.939 153.396 278.463 153.629C276.367 153.862 274.348 154.795 272.251 154.951C269.688 155.65 266.971 155.883 264.33 156.505C264.02 156.583 263.01 156.894 263.166 156.194C266.427 155.106 269.999 155.028 273.338 153.94C275.512 153.629 277.609 153.085 279.706 152.463C284.675 151.453 289.49 149.976 294.382 148.499C296.168 147.644 298.109 147.333 299.895 146.478C306.884 143.913 313.485 140.415 319.697 136.373C323.269 134.042 326.686 131.477 330.025 128.912C332.613 126.839 335.227 124.818 337.868 122.849Z" fill="black"/>
<path d="M259.827 147.955C259.905 147.799 260.138 147.566 260.293 147.488C260.759 149.276 260.448 151.142 260.992 152.929C261.147 154.328 262.001 155.65 261.846 157.049C260.992 156.66 260.914 155.727 260.681 154.95C259.905 152.696 259.905 150.286 259.827 147.955Z" fill="black"/>
<path d="M319.542 132.876C320.474 132.176 321.251 131.166 322.416 130.777C322.027 132.099 320.707 132.798 319.775 133.653C318.378 134.664 317.057 135.907 315.427 136.529C315.582 136.141 315.737 135.752 316.126 135.441C317.213 134.586 318.378 133.731 319.542 132.876Z" fill="black"/>
<path d="M263.089 148.577C263.244 148.421 263.477 148.111 263.555 147.955C263.943 149.51 264.021 151.22 263.865 152.774C263.71 152.774 263.477 152.852 263.322 152.852C263.244 151.453 263.167 149.976 263.089 148.577Z" fill="black"/>
</svg>
