<svg width="1920" height="332" viewBox="0 0 1920 332" fill="none" xmlns="http://www.w3.org/2000/svg">
<g clip-path="url(#clip0_186_9907)">
<g clip-path="url(#clip1_186_9907)">
<path d="M1147.57 346.424C1169.24 312.051 1181.83 271.388 1181.83 227.804C1181.83 104.616 1082.05 4.94238 958.726 4.94238C835.402 4.94238 735.618 104.616 735.618 227.804C735.618 271.462 748.213 312.126 769.804 346.424H1147.57Z" fill="#F0E9DA"/>
<path d="M775.876 346.424C753.61 312.276 740.566 271.537 740.566 227.804C740.566 107.612 838.4 9.88498 958.726 9.88498C1079.05 9.88498 1176.89 107.612 1176.89 227.804C1176.89 271.537 1163.84 312.276 1141.57 346.424H1153.34C1174.56 311.826 1186.78 271.238 1186.78 227.804C1186.78 102.22 1084.45 0 958.726 0C833.003 0 730.67 102.22 730.67 227.804C730.67 271.238 742.89 311.901 764.106 346.424H775.876Z" fill="#EDE5D3"/>
<path d="M832.328 346.424C803.09 315.421 785.172 273.635 785.172 227.804C785.172 132.249 862.99 54.4426 958.725 54.4426C1054.46 54.4426 1132.28 132.174 1132.28 227.804C1132.28 273.709 1114.29 315.421 1085.12 346.424H1098.39C1125.68 314.448 1142.17 273.035 1142.17 227.804C1142.17 126.783 1059.86 44.5576 958.725 44.5576C857.592 44.5576 775.276 126.783 775.276 227.804C775.276 273.035 791.77 314.448 819.058 346.424H832.328Z" fill="#EDE5D3"/>
<path d="M886.905 346.423H908.571C862.315 326.878 829.779 281.048 829.779 227.804C829.779 156.811 887.58 98.9992 958.725 98.9992C1029.87 98.9992 1087.67 156.737 1087.67 227.804C1087.67 281.048 1055.14 326.878 1008.88 346.423H1030.55C1070.73 322.085 1097.57 278.052 1097.57 227.804C1097.57 151.345 1035.27 89.1143 958.725 89.1143C882.182 89.1143 819.883 151.345 819.883 227.804C819.883 278.052 846.797 322.085 886.905 346.423Z" fill="#EDE5D3"/>
<path d="M958.725 321.861C906.772 321.861 864.564 279.625 864.564 227.804C864.564 175.983 906.847 133.747 958.725 133.747C1010.6 133.747 1052.89 175.983 1052.89 227.804C1052.89 279.625 1010.6 321.861 958.725 321.861ZM958.725 143.557C912.245 143.557 874.46 181.3 874.46 227.729C874.46 274.159 912.245 311.901 958.725 311.901C1005.21 311.901 1042.99 274.159 1042.99 227.729C1042.99 181.3 1005.21 143.557 958.725 143.557Z" fill="#EDE5D3"/>
<path d="M958.725 277.303C931.362 277.303 909.171 255.062 909.171 227.804C909.171 200.545 931.437 178.304 958.725 178.304C986.014 178.304 1008.28 200.545 1008.28 227.804C1008.28 255.062 986.014 277.303 958.725 277.303ZM958.725 188.189C936.834 188.189 919.067 205.937 919.067 227.804C919.067 249.67 936.834 267.418 958.725 267.418C980.616 267.418 998.384 249.67 998.384 227.804C998.384 205.937 980.616 188.189 958.725 188.189Z" fill="#EDE5D3"/>
<path d="M922.59 450.965C944.256 416.592 956.851 375.929 956.851 332.345C956.851 209.157 857.067 109.483 733.743 109.483C610.419 109.483 510.636 209.157 510.636 332.345C510.636 376.003 523.231 416.667 544.897 450.965H922.665H922.59Z" fill="#F0E9DA"/>
<path d="M550.895 450.965C528.629 416.817 515.584 376.078 515.584 332.345C515.584 212.153 613.419 114.426 733.744 114.426C854.069 114.426 951.904 212.153 951.904 332.345C951.904 376.078 938.859 416.817 916.593 450.965H928.363C949.58 416.367 961.8 375.779 961.8 332.345C961.8 206.761 859.467 104.541 733.744 104.541C608.021 104.541 505.688 206.761 505.688 332.345C505.688 375.779 517.908 416.442 539.125 450.965H550.895Z" fill="#EDE5D3"/>
<path d="M607.346 450.965C578.108 419.962 560.191 378.176 560.191 332.345C560.191 236.79 638.009 158.984 733.744 158.984C829.479 158.984 907.297 236.716 907.297 332.345C907.297 378.25 889.305 419.962 860.142 450.965H873.411C900.7 418.989 917.193 377.577 917.193 332.345C917.193 231.324 834.877 149.099 733.744 149.099C632.611 149.099 550.295 231.324 550.295 332.345C550.295 377.577 566.788 418.989 594.077 450.965H607.346Z" fill="#EDE5D3"/>
<path d="M661.924 450.964H683.59C637.334 431.419 604.797 385.589 604.797 332.345C604.797 261.352 662.598 203.54 733.744 203.54C804.889 203.54 862.691 261.278 862.691 332.345C862.691 385.589 830.154 431.419 783.898 450.964H805.564C845.748 426.626 872.586 382.593 872.586 332.345C872.586 255.886 810.287 193.655 733.744 193.655C657.201 193.655 594.901 255.886 594.901 332.345C594.901 382.593 621.815 426.626 661.924 450.964Z" fill="#EDE5D3"/>
<path d="M733.744 426.476C681.791 426.476 639.583 384.241 639.583 332.419C639.583 280.598 681.865 238.362 733.744 238.362C785.623 238.362 827.905 280.598 827.905 332.419C827.905 384.241 785.623 426.476 733.744 426.476ZM733.744 248.172C687.263 248.172 649.479 285.915 649.479 332.345C649.479 378.774 687.263 416.517 733.744 416.517C780.225 416.517 818.009 378.774 818.009 332.345C818.009 285.915 780.225 248.172 733.744 248.172Z" fill="#EDE5D3"/>
<path d="M733.744 381.844C706.38 381.844 684.189 359.603 684.189 332.345C684.189 305.086 706.455 282.845 733.744 282.845C761.033 282.845 783.298 305.086 783.298 332.345C783.298 359.603 761.033 381.844 733.744 381.844ZM733.744 292.73C711.853 292.73 694.085 310.478 694.085 332.345C694.085 354.211 711.853 371.959 733.744 371.959C755.635 371.959 773.403 354.211 773.403 332.345C773.403 310.478 755.635 292.73 733.744 292.73Z" fill="#EDE5D3"/>
<path d="M1375.18 450.965C1396.84 416.592 1409.44 375.929 1409.44 332.345C1409.44 209.157 1309.66 109.483 1186.33 109.483C1063.01 109.483 963.224 209.157 963.224 332.345C963.224 376.003 975.818 416.667 997.409 450.965H1375.18Z" fill="#F0E9DA"/>
<path d="M1003.41 450.965C981.142 416.817 968.097 376.078 968.097 332.345C968.097 212.153 1065.93 114.426 1186.26 114.426C1306.58 114.426 1404.42 212.153 1404.42 332.345C1404.42 376.078 1391.37 416.817 1369.11 450.965H1380.88C1402.09 416.367 1414.31 375.779 1414.31 332.345C1414.31 206.761 1311.98 104.541 1186.26 104.541C1060.53 104.541 958.201 206.761 958.201 332.345C958.201 375.779 970.421 416.442 991.637 450.965H1003.41Z" fill="#EDE5D3"/>
<path d="M1059.93 450.965C1030.7 419.962 1012.78 378.176 1012.78 332.345C1012.78 236.79 1090.6 158.984 1186.33 158.984C1282.07 158.984 1359.89 236.716 1359.89 332.345C1359.89 378.25 1341.89 419.962 1312.73 450.965H1326C1353.29 418.989 1369.78 377.577 1369.78 332.345C1369.78 231.324 1287.46 149.099 1186.33 149.099C1085.2 149.099 1002.88 231.324 1002.88 332.345C1002.88 377.577 1019.38 418.989 1046.66 450.965H1059.93Z" fill="#EDE5D3"/>
<path d="M1114.51 450.964H1136.18C1089.92 431.419 1057.39 385.589 1057.39 332.345C1057.39 261.352 1115.19 203.54 1186.33 203.54C1257.48 203.54 1315.28 261.278 1315.28 332.345C1315.28 385.589 1282.74 431.419 1236.49 450.964H1258.15C1298.34 426.626 1325.17 382.593 1325.17 332.345C1325.17 255.886 1262.88 193.655 1186.33 193.655C1109.79 193.655 1047.49 255.886 1047.49 332.345C1047.49 382.593 1074.4 426.626 1114.51 450.964Z" fill="#EDE5D3"/>
<path d="M1186.26 426.476C1134.3 426.476 1092.1 384.241 1092.1 332.419C1092.1 280.598 1134.38 238.362 1186.26 238.362C1238.14 238.362 1280.42 280.598 1280.42 332.419C1280.42 384.241 1238.14 426.476 1186.26 426.476ZM1186.26 248.172C1139.78 248.172 1101.99 285.915 1101.99 332.345C1101.99 378.774 1139.78 416.517 1186.26 416.517C1232.74 416.517 1270.52 378.774 1270.52 332.345C1270.52 285.915 1232.74 248.172 1186.26 248.172Z" fill="#EDE5D3"/>
<path d="M1186.26 381.844C1158.89 381.844 1136.7 359.603 1136.7 332.345C1136.7 305.086 1158.97 282.845 1186.26 282.845C1213.55 282.845 1235.81 305.086 1235.81 332.345C1235.81 359.603 1213.55 381.844 1186.26 381.844ZM1186.26 292.73C1164.37 292.73 1146.6 310.478 1146.6 332.345C1146.6 354.211 1164.37 371.959 1186.26 371.959C1208.15 371.959 1225.92 354.211 1225.92 332.345C1225.92 310.478 1208.15 292.73 1186.26 292.73Z" fill="#EDE5D3"/>
<path d="M712.378 543C723.173 516.865 729.246 488.258 729.246 458.229C729.246 335.041 629.462 235.367 506.138 235.367C382.814 235.367 283.03 335.041 283.03 458.229C283.03 488.258 289.103 516.865 299.898 543H712.378Z" fill="#F0E9DA"/>
<path d="M305.371 543C294.275 516.94 287.978 488.258 287.978 458.229C287.978 338.036 385.812 240.31 506.138 240.31C626.463 240.31 724.297 338.036 724.297 458.229C724.297 488.333 718 516.94 706.905 543H717.625C728.196 516.79 734.193 488.183 734.193 458.229C734.193 332.644 631.861 230.425 506.138 230.425C380.415 230.425 278.082 332.644 278.082 458.229C278.082 488.183 284.005 516.79 294.65 543H305.371Z" fill="#EDE5D3"/>
<path d="M355.075 543C340.906 517.913 332.584 489.007 332.584 458.229C332.584 362.674 410.402 284.867 506.137 284.867C601.873 284.867 679.69 362.599 679.69 458.229C679.69 489.082 671.444 517.913 657.2 543H668.445C681.79 517.614 689.511 488.783 689.511 458.229C689.511 357.207 607.195 274.982 506.062 274.982C404.929 274.982 322.613 357.207 322.613 458.229C322.613 488.857 330.335 517.614 343.68 543H354.925H355.075Z" fill="#EDE5D3"/>
<path d="M409.277 543C389.336 520.309 377.191 490.654 377.191 458.228C377.191 387.236 434.992 329.424 506.137 329.424C577.283 329.424 635.084 387.161 635.084 458.228C635.084 490.729 622.939 520.384 602.997 543H615.817C634.034 519.56 644.905 490.13 644.905 458.228C644.905 381.77 582.606 319.539 506.062 319.539C429.519 319.539 367.22 381.77 367.22 458.228C367.22 490.13 378.09 519.56 396.308 543H409.127H409.277Z" fill="#EDE5D3"/>
<path d="M1164.89 543C1175.69 516.865 1181.76 488.258 1181.76 458.229C1181.76 335.041 1081.97 235.367 958.651 235.367C835.327 235.367 735.543 335.041 735.543 458.229C735.543 488.258 741.615 516.865 752.411 543H1164.89Z" fill="#F0E9DA"/>
<path d="M757.959 543C746.863 516.94 740.566 488.258 740.566 458.229C740.566 338.036 838.4 240.31 958.726 240.31C1079.05 240.31 1176.89 338.036 1176.89 458.229C1176.89 488.333 1170.59 516.94 1159.49 543H1170.21C1180.78 516.79 1186.78 488.183 1186.78 458.229C1186.78 332.644 1084.45 230.425 958.726 230.425C833.003 230.425 730.67 332.644 730.67 458.229C730.67 488.183 736.592 516.79 747.238 543H757.959Z" fill="#EDE5D3"/>
<path d="M807.588 543C793.419 517.913 785.098 489.007 785.098 458.229C785.098 362.674 862.916 284.867 958.651 284.867C1054.39 284.867 1132.2 362.599 1132.2 458.229C1132.2 489.082 1123.96 517.913 1109.71 543H1120.96C1134.3 517.614 1142.03 488.783 1142.03 458.229C1142.03 357.207 1059.71 274.982 958.576 274.982C857.443 274.982 775.127 357.207 775.127 458.229C775.127 488.857 782.849 517.614 796.193 543H807.439H807.588Z" fill="#EDE5D3"/>
<path d="M861.865 543C841.923 520.309 829.779 490.654 829.779 458.228C829.779 387.236 887.58 329.424 958.725 329.424C1029.87 329.424 1087.67 387.161 1087.67 458.228C1087.67 490.729 1075.53 520.384 1055.59 543H1068.4C1086.62 519.56 1097.49 490.13 1097.49 458.228C1097.49 381.77 1035.19 319.539 958.65 319.539C882.107 319.539 819.808 381.77 819.808 458.228C819.808 490.13 830.678 519.56 848.896 543H861.715H861.865Z" fill="#EDE5D3"/>
<path d="M1617.48 543C1628.27 516.865 1634.35 488.258 1634.35 458.229C1634.35 335.041 1534.56 235.367 1411.24 235.367C1287.91 235.367 1188.13 335.041 1188.13 458.229C1188.13 488.258 1194.2 516.865 1205 543H1617.48Z" fill="#F0E9DA"/>
<path d="M1210.47 543C1199.38 516.94 1193.08 488.258 1193.08 458.229C1193.08 338.036 1290.91 240.31 1411.24 240.31C1531.56 240.31 1629.4 338.036 1629.4 458.229C1629.4 488.333 1623.1 516.94 1612.01 543H1622.73C1633.3 516.79 1639.29 488.183 1639.29 458.229C1639.29 332.644 1536.96 230.425 1411.24 230.425C1285.52 230.425 1183.18 332.644 1183.18 458.229C1183.18 488.183 1189.11 516.79 1199.75 543H1210.47Z" fill="#EDE5D3"/>
<path d="M1260.18 543C1246.01 517.913 1237.68 489.007 1237.68 458.229C1237.68 362.674 1315.5 284.867 1411.24 284.867C1506.97 284.867 1584.79 362.599 1584.79 458.229C1584.79 489.082 1576.54 517.913 1562.3 543H1573.55C1586.89 517.614 1594.61 488.783 1594.61 458.229C1594.61 357.207 1512.3 274.982 1411.16 274.982C1310.03 274.982 1227.71 357.207 1227.71 458.229C1227.71 488.857 1235.44 517.614 1248.78 543H1260.03H1260.18Z" fill="#EDE5D3"/>
<path d="M1314.38 543C1294.44 520.309 1282.29 490.654 1282.29 458.228C1282.29 387.236 1340.09 329.424 1411.24 329.424C1482.38 329.424 1540.18 387.161 1540.18 458.228C1540.18 490.729 1528.04 520.384 1508.1 543H1520.92C1539.13 519.56 1550.01 490.13 1550.01 458.228C1550.01 381.77 1487.71 319.539 1411.16 319.539C1334.62 319.539 1272.32 381.77 1272.32 458.228C1272.32 490.13 1283.19 519.56 1301.41 543H1314.23H1314.38Z" fill="#EDE5D3"/>
</g>
</g>
<defs>
<clipPath id="clip0_186_9907">
<rect width="1920" height="332" fill="white"/>
</clipPath>
<clipPath id="clip1_186_9907">
<rect width="1812" height="543" fill="white" transform="translate(54)"/>
</clipPath>
</defs>
</svg>
