<svg width="319" height="250" viewBox="0 0 319 250" fill="none" xmlns="http://www.w3.org/2000/svg">
<g clip-path="url(#clip0_270_1299)">
<path d="M153.57 30.5566C161.65 29.9655 169.684 29.9655 177.671 30.5566C193.274 30.5566 208.877 33.0691 223.783 37.9461C224.062 37.6505 224.48 37.0594 224.758 36.7638C225.408 37.4535 226.058 38.1432 226.708 38.8329C228.38 38.8329 230.191 39.7196 231.166 41.3453C230.888 41.6409 230.609 42.232 230.47 42.5276C232.977 48.1436 234.51 54.3507 236.739 60.1145C239.386 68.6863 243.286 76.8147 246.351 85.2387C248.441 90.8547 250.531 96.4707 252.202 102.382C254.431 109.772 255.824 117.309 258.053 124.698C261.257 133.418 264.74 141.99 267.666 150.709C269.059 156.325 271.427 161.941 270.87 168.001C269.337 167.853 267.944 166.966 266.83 166.079C259.725 161.202 253.038 155.882 245.376 151.892C237.157 147.458 228.519 143.615 220.161 139.33C217.932 137.999 215.146 137.408 213.195 135.487C208.877 129.132 205.533 122.038 202.05 115.092C194.11 102.087 184.358 90.2635 175.164 78.1448C162.208 61.888 149.113 45.4834 133.092 32.6257C133.092 32.1824 133.092 31.1478 133.231 30.7044C135.042 31.739 137.271 31.5912 139.361 31.2956C144.097 30.4089 148.834 30.8522 153.57 30.5566Z" fill="#E57F45"/>
<path d="M104.813 38.5383C106.485 37.7993 107.878 39.2772 108.992 40.3117C111.918 43.4153 115.261 45.7799 118.047 49.0313C127.66 56.2729 135.461 65.5837 143.681 74.451C153.572 85.8308 164.159 96.4716 174.747 107.112C178.508 111.251 182.548 115.684 185.195 120.857C185.752 121.891 186.031 124.404 184.22 124.108C177.254 121.596 170.289 119.231 162.905 118.344C156.776 118.049 150.646 117.901 144.516 118.492C135.879 119.231 127.381 118.344 118.883 119.675C115.122 120.266 111.918 117.458 108.435 116.275C97.0115 110.807 85.0308 106.817 73.468 101.496C62.7411 96.7672 52.2928 91.7424 41.7052 87.0131C39.1976 85.8308 36.4114 86.7175 33.7645 86.7175C31.9535 85.9786 33.6252 84.3529 34.3218 83.3184C38.6404 78.1458 44.0735 74.0076 49.228 69.7218C58.8404 62.0367 69.0101 55.3862 79.4583 49.3269C87.5383 44.7454 96.5935 42.6764 104.813 38.5383Z" fill="#E57F45"/>
<path d="M259.446 53.6127C259.446 52.2826 259.446 50.9525 260.561 49.918C261.257 51.3959 261.536 53.1694 262.929 54.0561C268.919 58.6376 274.213 64.1057 280.064 69.1306C288.284 76.8156 296.364 84.944 304.026 93.5158C309.18 99.5752 313.917 106.373 316.285 114.354C319.071 121.448 319.489 129.281 320.325 136.966C322.275 155.587 326.455 173.913 333.142 191.352C336.346 199.924 339.55 208.644 344.147 216.476C344.704 217.659 345.819 218.841 345.122 220.319C343.729 220.91 342.615 219.876 341.5 219.284C338.157 217.511 335.092 215.294 331.748 213.816C327.987 212.338 324.922 209.53 321.439 207.314C318.096 205.245 314.892 202.732 311.548 200.515C305.976 197.264 300.961 193.274 296.364 188.84C292.602 185.736 289.537 181.894 285.915 178.79C285.079 176.426 284.94 173.913 284.522 171.401C283.268 162.09 280.9 152.927 279.228 143.764C277.278 133.419 275.467 122.926 273.238 112.581C270.87 102.088 268.223 91.7423 265.855 81.2493C264.601 75.7811 264.322 70.0173 263.068 64.5491C262.233 61.4455 261.397 58.342 260.7 55.0906C260.282 54.795 259.725 54.0561 259.446 53.6127Z" fill="#E57F45"/>
<path d="M21.0868 104.451C21.9227 104.156 22.805 103.86 23.7337 103.564C23.873 104.008 24.1516 104.747 24.2909 105.19C32.2316 106.52 40.1723 108.294 47.9737 110.363C63.4372 114.649 79.5972 116.718 94.5034 122.777C96.5931 123.22 97.2897 125.881 95.2 126.915C90.4634 129.428 85.309 131.349 80.5724 134.009C68.1738 140.068 57.4468 149.379 44.491 154.552C39.6151 156.916 33.6247 156.03 29.0275 153.074C23.873 149.231 20.9475 143.172 18.1613 137.408C16.2109 132.975 13.7033 128.836 12.5889 123.959C12.3102 122.186 12.0316 120.412 13.0068 118.935C14.5392 115.831 16.0716 112.727 17.8826 109.772C18.9971 107.998 20.3903 106.52 21.0868 104.451Z" fill="#E57F45"/>
<path d="M157.61 29.9658C158.307 29.3746 158.864 28.3401 159.979 28.4879C167.083 28.9313 174.328 28.1923 181.432 28.6357C187.423 29.5224 193.413 29.9658 199.264 31.0003C199.078 31.8871 198.568 32.2812 197.732 32.1826C191.463 32.1826 185.333 31.1481 179.064 30.557C175.581 29.818 171.959 29.818 168.477 30.4092C164.854 31.1481 161.232 29.818 157.61 29.9658Z" fill="black"/>
<path d="M137.272 30.1136C142.984 30.2614 148.417 28.7835 154.129 29.3746C153.99 29.6702 153.711 30.2614 153.572 30.7047C147.024 30.7047 140.337 31.7393 133.789 32.1826C125.849 32.626 118.326 35.7296 110.385 36.3208C104.674 37.3553 98.6833 38.3898 93.6681 41.9367C89.4888 44.0058 85.0309 45.7793 81.2695 48.735C76.2543 52.5776 70.6819 55.5333 64.9702 57.898C64.1343 57.898 62.4626 59.5236 62.3232 57.898C63.4377 57.0112 64.6916 56.4201 65.9454 55.8289C70.6819 53.4643 75.2791 51.0997 79.4584 47.7005C81.966 45.6315 85.0309 44.0058 87.9564 42.5279C89.6281 41.7397 91.2998 41.0007 92.9715 40.311C93.6217 39.9169 94.3182 39.5229 95.0612 39.1287C96.64 38.4391 98.2653 37.8479 99.9371 37.3553C101.33 36.9119 102.584 36.6163 103.838 36.173C112.336 34.9906 120.416 32.3304 128.774 30.8525C131.7 30.8525 134.486 30.2614 137.272 30.1136Z" fill="black"/>
<path d="M205.673 32.1824C208.738 31.8868 211.803 32.7735 214.728 33.5125C222.529 34.547 229.913 37.6506 237.436 39.7196C240.222 40.163 242.451 42.0843 244.68 43.71C236.739 41.7887 228.798 40.0152 221.136 37.355C216.678 36.1727 212.36 34.3992 207.763 33.5125C207.02 33.2169 206.323 32.7735 205.673 32.1824Z" fill="black"/>
<path d="M137.831 41.0498C138.667 41.1483 139.363 41.5917 139.921 42.3799C143.403 47.2569 148.001 51.3951 152.041 55.8287C157.892 61.8881 163.046 68.6864 168.897 74.8935C172.798 79.475 177.117 83.7609 181.017 88.3424C188.122 96.9141 194.391 106.225 201.078 115.24C202.471 116.866 203.864 118.639 204.979 120.56L204.282 121.004C199.685 116.422 196.341 110.806 192.441 105.634C187.565 99.2788 183.246 92.4805 177.674 86.7167C173.077 81.9874 168.897 76.8148 164.439 72.0856C160.539 68.0952 157.474 63.366 153.434 59.5235C149.115 54.6464 144.239 50.2127 140.339 44.8923C139.363 43.71 138.11 42.6755 137.831 41.0498Z" fill="black"/>
<path d="M119.302 41.4932C122.088 42.8233 123.62 45.6312 125.71 47.5525C130.168 51.9862 133.79 57.011 137.83 61.7403C144.238 68.5386 150.229 75.4847 156.358 82.4308C156.358 82.7263 156.498 83.4653 156.498 83.7609C152.179 79.7705 148.418 75.0413 144.238 70.9032C136.855 63.366 130.725 54.6464 123.342 47.1091C121.949 45.3357 119.72 44.0056 119.302 41.4932Z" fill="black"/>
<path d="M252.343 47.2568C255.687 47.848 258.612 49.9171 261.538 51.8383C268.224 56.4198 274.493 61.7402 280.623 67.0606C284.802 70.4597 288.285 74.45 291.907 78.5881C292.464 79.6227 293.858 80.805 293.579 82.1351C292.604 81.6917 291.907 80.805 291.211 79.9183C286.474 74.5979 281.598 69.2774 275.887 65.2871C268.085 59.5233 260.562 53.1684 252.064 48.4391C252.204 48.1436 252.343 47.5524 252.343 47.2568Z" fill="black"/>
<path d="M240.92 55.681C241.199 55.681 241.895 55.681 242.174 55.5332C242.592 59.6713 244.124 63.5138 245.378 67.3563C248.582 75.337 250.811 83.7609 253.179 92.1849C258.752 109.624 263.488 127.359 268.364 144.946C269.061 148.049 270.454 151.005 270.872 154.109C268.085 151.744 268.085 147.458 266.692 144.059C266.135 141.842 265.439 139.625 264.881 137.261C262.374 128.837 260.284 120.265 257.776 111.693C256.523 107.407 255.269 103.121 254.015 98.8354C253.319 96.9142 252.761 94.8451 252.065 92.9239C250.254 86.5689 248.582 80.214 246.492 74.0069C245.935 72.726 245.471 71.4452 245.099 70.1643C243.428 65.4351 241.338 60.7058 240.92 55.681Z" fill="black"/>
<path d="M47.1387 71.4936C49.7856 69.129 52.0146 66.0254 55.0794 64.252C55.0794 64.8431 54.9401 66.0254 54.9401 66.4688C48.6247 73.4642 42.0771 80.2132 35.2973 86.7159C32.0931 89.6717 30.2821 93.8098 27.6352 97.3567C25.8242 99.8692 24.7097 102.825 23.038 105.337C21.2269 108.737 18.3014 111.101 16.9083 114.648C16.0725 116.569 15.3759 118.491 14.6793 120.56C14.4007 122.333 14.4007 124.107 13.4256 125.732C11.7538 124.107 12.729 121.594 13.1469 119.525C14.4007 115.535 15.9331 111.544 18.58 108.293C22.0628 104.155 23.7345 98.6868 26.9386 94.401C28.889 91.2974 30.7 87.8982 33.3469 85.3858C38.0835 80.8043 42.4021 75.9273 47.1387 71.4936Z" fill="black"/>
<path d="M260.004 66.7656C260.422 67.0612 260.979 67.5046 261.397 67.6524C263.347 75.633 265.298 83.6136 266.969 91.742C268.502 99.2793 270.591 106.669 271.985 114.206C274.214 126.177 276.86 138.148 278.671 150.414C278.393 149.971 277.696 149.084 277.278 148.641C273.935 130.906 271.009 113.024 266.552 95.5845C264.601 85.9782 262.094 76.3719 260.004 66.7656Z" fill="black"/>
<path d="M293.719 82.4316C298.595 85.0918 301.381 90.4123 305.003 94.6982C314.197 105.93 320.327 119.527 327.85 132.089C333.283 141.843 339.413 151.301 345.542 160.76C348.189 163.864 350.975 166.967 353.344 170.514C353.762 171.253 354.737 171.992 354.597 173.026C353.344 173.47 352.647 171.992 351.951 171.253C349.861 168.149 347.214 165.637 344.846 162.977C340.248 156.622 336.487 149.824 332.447 143.025C325.621 131.498 318.377 120.118 311.829 108.443C307.789 101.201 302.774 94.5504 297.898 87.8999C296.505 85.9786 294.415 84.7963 293.719 82.4316Z" fill="black"/>
<path d="M40.4502 88.7859C42.9578 88.4903 45.326 89.5248 47.6943 90.4115C54.2419 93.0717 60.9289 95.1408 67.3371 98.3922C74.1633 101.496 81.4075 103.565 88.373 106.225C92.413 107.851 96.871 109.033 100.772 111.25C98.682 111.841 96.8709 110.954 95.0599 110.215C86.0047 106.964 76.9496 104.156 68.0337 100.461C60.5109 96.9143 52.7095 94.254 45.0474 91.1505C43.3757 90.4115 41.4254 90.4116 40.4502 88.7859Z" fill="black"/>
<path d="M162.629 88.4912C164.44 88.7868 165.415 90.4125 166.808 91.447C169.037 93.3683 170.988 95.5851 173.217 97.5064C174.192 98.5409 175.724 99.4276 176.003 101.053C172.799 99.871 170.57 96.7674 168.062 94.5506C166.39 92.4815 163.186 91.447 162.629 88.4912Z" fill="black"/>
<path d="M29.4453 102.975C39.3364 103.714 48.9487 105.487 58.5611 108.147C68.3129 110.068 77.6467 113.32 87.1198 116.128C87.1198 116.423 86.9806 116.867 86.8412 117.162C80.1543 115.684 73.4674 113.32 66.7805 111.694C57.8646 109.921 49.0881 107.704 40.0329 106.078C36.5501 105.339 32.9281 105.339 29.4453 104.453C29.4453 104.009 29.4453 103.418 29.4453 102.975Z" fill="black"/>
<path d="M142.425 109.92C149.808 111.102 157.192 112.285 164.436 114.058C169.73 115.093 175.024 116.718 180.317 117.753C183.94 118.492 187.701 118.64 191.323 119.822C191.323 120.117 191.184 120.709 191.184 121.152C185.611 119.97 179.76 119.526 174.188 118.048C164.436 115.536 154.545 113.319 144.515 111.841C143.4 111.546 142.286 111.25 141.311 110.954C141.589 110.659 142.146 110.216 142.425 109.92Z" fill="black"/>
<path d="M182.827 109.625C185.474 110.807 188.121 112.729 189.514 115.389C186.728 114.502 184.22 112.285 182.827 109.625Z" fill="black"/>
<path d="M104.673 115.684C109.27 114.354 113.728 112.58 118.464 113.024C116.653 114.945 114.007 114.354 111.778 115.093C100.215 118.344 88.9306 122.334 78.0644 127.359C74.303 129.133 70.4024 130.906 66.641 132.532C64.5049 133.615 62.4153 134.749 60.372 135.931C58.8396 136.818 57.4465 137.852 55.9141 138.591C53.5458 140.069 51.3168 141.695 48.9486 143.173C45.3265 145.389 41.4258 146.424 37.3858 147.311C35.9927 146.572 34.321 145.685 34.1816 143.911C34.7389 144.207 35.7141 144.946 36.2713 145.389C39.1968 145.537 41.8437 144.355 44.6299 143.616C53.1279 139.33 60.6507 133.271 69.4272 129.576C71.0989 128.837 72.7706 128.098 74.4424 127.359C76.3927 126.472 78.2966 125.586 80.1541 124.699C88.2341 121.152 96.4534 118.344 104.673 115.684Z" fill="black"/>
<path d="M115.956 118.195C124.454 117.309 133.091 116.274 141.589 116.865C145.35 117.456 149.251 117.161 153.012 117.9C155.52 118.195 158.167 118.934 160.814 118.934C160.953 119.23 161.232 119.969 161.371 120.264C160.721 120.56 160.071 120.806 159.421 121.003C144.654 118.934 129.469 119.082 114.563 121.299C106.204 122.777 98.124 125.585 90.1833 128.393C81.4068 131.496 73.7447 137.26 65.2468 140.955C64.3181 141.448 63.3428 141.94 62.3212 142.433C56.4702 145.832 51.5943 150.561 46.3005 154.847C43.0964 157.803 38.3599 158.246 34.3199 157.951C30.5585 156.325 25.2647 155.882 23.5929 151.3C21.0853 145.093 18.4385 138.886 15.3736 132.827C14.9557 131.349 14.5377 129.871 14.3984 128.393C15.3272 128.393 15.9773 128.836 16.3488 129.723C18.9957 135.043 21.5033 140.364 23.5929 145.98C24.8467 149.231 26.5185 153.074 30.1405 153.665C32.7874 154.108 35.0164 156.768 37.8026 155.882C40.1709 155.438 42.5391 154.995 44.3502 153.369C50.8978 147.901 57.4454 142.285 65.2468 138.886C69.1475 137.211 72.9552 135.24 76.6702 132.974C80.9888 130.166 85.4468 127.949 90.1833 126.028C98.5419 122.629 107.04 119.525 115.956 118.195Z" fill="black"/>
<path d="M166.109 119.526C169.453 119.526 172.378 121.152 175.304 122.187C183.523 124.847 191.325 128.542 199.544 131.202C205.952 133.271 211.803 136.67 217.933 139.33C221.137 140.66 224.202 142.434 227.406 143.764C235.068 146.72 242.869 149.971 249.556 154.848C250.949 156.03 252.9 156.917 253.457 158.986C251.925 158.986 250.81 157.804 249.696 157.065C244.123 153.075 237.994 150.119 231.725 147.459C224.341 144.798 217.376 141.251 210.132 138.148C202.748 134.453 194.668 132.532 187.145 129.28C180.876 126.472 174.189 124.551 167.92 121.743C166.945 121.448 166.249 120.561 166.109 119.526Z" fill="black"/>
<path d="M206.091 127.654C206.23 125.88 207.763 127.063 208.738 127.358C209.574 127.654 210.549 128.097 211.524 128.541C214.867 129.723 218.211 130.757 221.415 132.235C224.062 133.418 226.709 134.6 229.216 135.93C236.6 139.625 243.844 143.172 250.949 147.458C255.267 150.118 260.004 152.187 264.044 155.29C267.666 157.951 271.567 160.02 275.328 162.384C278.811 164.601 282.433 166.818 286.055 169.183C288.702 170.956 291.488 172.877 293.996 174.946C293.996 175.39 294.274 175.981 294.274 176.277C291.627 174.946 289.259 172.877 286.752 171.252C281.318 167.853 275.885 164.453 270.452 161.202C265.298 158.542 260.979 154.552 255.685 152.187C246.769 146.965 237.714 142.088 228.52 137.556C222.529 134.304 216.4 131.94 210.131 129.575C208.738 128.984 207.345 128.393 206.091 127.654Z" fill="black"/>
<path d="M20.2516 127.507C21.3661 128.541 21.784 130.019 22.4806 131.349C25.4061 134.896 28.1923 138.591 31.5358 141.547C29.1675 141.842 27.7744 139.626 26.242 138.148C24.2916 135.487 21.784 133.418 20.1123 130.61C20.2052 129.527 20.2516 128.492 20.2516 127.507Z" fill="black"/>
<path d="M175.723 143.616C176.001 143.468 176.559 143.32 176.837 143.32C178.509 146.719 183.245 148.789 186.31 146.128C186.31 146.572 186.31 147.458 186.31 147.902C185.892 148.197 185.196 148.789 184.917 149.084C181.156 149.38 176.698 147.902 175.723 143.616Z" fill="black"/>
<path fill-rule="evenodd" clip-rule="evenodd" d="M85.7254 144.65C88.6509 143.172 92.1337 143.468 95.0592 144.946C97.4275 146.424 99.6564 148.345 101.05 150.858C101.05 151.843 101.096 152.828 101.189 153.813C98.2634 156.621 94.084 155.291 90.7406 154.109C88.6509 152.779 86.2827 151.449 84.4716 149.38C83.6358 148.345 84.0537 146.867 84.0537 145.685C84.4716 145.389 85.3074 144.946 85.7254 144.65ZM86.2826 145.98C84.8895 146.276 85.1682 147.606 85.5861 148.641C87.8151 150.71 90.3226 152.188 92.9695 153.37C95.1985 153.961 97.4274 154.404 99.6564 153.37C99.6564 152.927 99.6565 151.892 99.7958 151.449C97.1489 146.867 91.1585 143.468 86.2826 145.98Z" fill="black"/>
<path d="M132.815 144.06C133.929 145.094 135.044 146.276 136.158 147.459C136.576 147.459 137.551 147.607 137.969 147.607C137.83 148.05 137.551 148.789 137.412 149.232C134.904 148.937 132.118 147.015 132.815 144.06Z" fill="black"/>
<path d="M138.945 147.458C140.338 147.901 141.592 148.64 142.985 149.084C144.099 148.936 144.935 148.049 145.771 147.606C145.91 148.049 146.05 148.788 146.05 149.084C143.821 151.005 140.895 150.414 138.666 148.64C138.805 148.345 138.805 147.754 138.945 147.458Z" fill="black"/>
<path fill-rule="evenodd" clip-rule="evenodd" d="M205.255 151.596C207.066 148.936 210.549 148.64 212.917 150.266C215.842 151.3 219.325 151.301 221.415 153.813C222.669 155.586 220.579 157.064 219.464 157.951C215.703 159.429 211.663 158.542 208.32 156.621C206.509 155.586 205.255 153.813 205.255 151.596ZM207.066 151.153C206.927 151.596 206.927 152.778 206.787 153.222C209.434 156.325 213.613 157.803 217.375 157.064C218.489 156.473 220.718 156.178 220.44 154.552C216.539 151.744 211.524 151.892 207.066 151.153Z" fill="black"/>
<path d="M47.5563 158.543C47.2777 156.917 49.5066 156.621 49.7852 158.099C49.9245 160.612 50.6211 163.272 52.4321 165.341C54.1039 166.819 56.1935 168.001 58.1438 169.183C62.0445 171.105 64.6915 174.799 68.7315 176.425C68.7315 176.721 68.4528 177.312 68.3135 177.607C65.9452 176.868 63.8555 175.538 62.0445 173.765C59.2583 170.957 55.6363 169.627 52.2928 167.705C49.0887 166.08 47.8349 162.089 47.5563 158.543Z" fill="black"/>
<path d="M81.9658 162.09C83.9162 163.42 82.941 166.524 84.752 167.854C86.0058 168.001 87.1203 167.854 88.2348 167.854C89.3493 171.548 92.1354 174.504 95.7575 175.982C97.9865 176.869 100.494 177.164 102.862 177.756C99.7976 179.529 96.0361 177.756 93.2499 176.278C90.4637 174.8 88.3741 172.287 87.3989 169.184C86.8416 169.332 85.8665 169.627 85.3092 169.923C84.8913 169.627 83.9161 169.332 83.4982 169.036C82.1051 167.115 81.5479 164.602 81.9658 162.09Z" fill="black"/>
<path d="M262.79 163.419C263.208 163.419 264.183 163.271 264.74 163.271C265.669 163.863 266.644 164.454 267.666 165.045C273.61 168.69 279.461 172.582 285.219 176.72C295.667 184.553 307.509 190.317 317.957 198.445C326.316 204.357 333.281 212.042 342.058 217.362C342.801 217.756 343.544 218.101 344.287 218.397C347.351 220.17 350.277 222.239 353.342 224.161C353.76 224.308 354.596 224.752 354.874 224.9C357.8 225.639 361.004 226.525 363.79 224.9C368.109 222.387 372.288 219.579 376.885 217.806C379.95 216.18 381.065 212.633 382.458 209.53C383.711 206.574 384.129 203.027 383.572 199.775C382.04 196.228 378.418 194.898 375.492 192.829C373.124 191.499 370.895 189.874 368.805 187.952C363.511 183.519 357.521 179.676 353.62 173.617C355.432 173.912 356.685 175.686 358.078 176.72C362.118 180.563 366.855 183.666 370.756 187.509C375.074 191.351 381.204 192.829 384.547 197.854C386.776 201.549 385.662 206.13 384.269 209.973C383.015 212.781 381.761 215.737 379.811 218.101C377.443 220.023 374.517 220.761 371.87 222.387C369.223 224.161 366.576 225.491 363.79 227.264C360.586 227.708 357.243 227.56 354.178 226.377C349.58 223.717 345.401 220.466 340.665 218.101C330.356 211.155 320.882 202.879 310.574 195.785C303.469 190.76 296.225 186.474 289.12 181.597C281.179 175.834 273.099 170.218 264.74 165.045C263.997 164.454 263.347 163.912 262.79 163.419Z" fill="black"/>
<path fill-rule="evenodd" clip-rule="evenodd" d="M153.154 168.592C158.587 167.115 164.438 168.149 170.011 167.854C170.429 168.001 171.125 168.592 171.404 168.888C171.404 169.676 171.404 170.464 171.404 171.253C168.2 175.095 163.045 174.947 158.727 174.208C156.498 173.765 154.13 173.617 152.319 172.139C151.204 170.809 152.319 169.627 153.154 168.592ZM153.154 170.366C153.712 171.253 154.547 171.696 155.383 172.287C158.03 172.731 160.816 173.322 163.603 173.174C166.11 173.322 169.454 172.287 170.29 169.331C167.782 169.036 165.414 169.184 162.906 169.184C159.563 169.331 156.219 168.888 153.154 170.366Z" fill="black"/>
<path d="M203.862 168.444C205.673 169.774 207.484 171.105 209.574 171.4C211.106 171.843 212.082 170.513 213.335 169.922C213.335 170.513 213.196 171.548 213.196 171.991C210.688 174.06 207.345 172.878 204.977 171.252C204.141 170.661 204.141 169.331 203.862 168.444Z" fill="black"/>
<path d="M246.911 170.956C247.608 170.217 248.304 169.035 249.419 169.331C249.697 170.661 248.583 171.4 248.025 172.434C245.657 172.582 243.15 172.434 242.035 169.922C243.707 170.07 245.239 170.513 246.911 170.956Z" fill="black"/>
<path d="M68.8701 177.754C69.4274 177.606 70.4025 177.606 70.9598 177.606C74.8605 179.528 77.786 183.075 80.1542 186.769C79.0397 186.622 78.0646 186.474 77.368 185.587C74.5818 182.927 72.0743 179.823 68.8701 177.754Z" fill="black"/>
<path d="M81.2676 186.623C82.9393 186.623 85.0289 186.475 86.0041 188.396C87.8151 191.648 90.462 194.456 93.9448 195.638C96.3131 195.933 98.8206 195.342 101.05 196.229C101.978 196.328 102.582 196.869 102.861 197.855C99.3779 197.707 95.8951 198.446 92.5517 197.855C88.5117 196.525 85.4468 193.125 83.9144 188.987C82.9857 188.593 82.1034 188.248 81.2676 187.953C81.2676 187.509 81.2676 186.918 81.2676 186.623Z" fill="black"/>
<path d="M145.074 190.021C147.303 191.943 148.557 195.194 151.621 196.081C151.761 197.706 149.95 197.411 148.975 196.968C147.024 195.342 144.656 193.125 145.074 190.021Z" fill="black"/>
<path d="M313.083 190.17C320.745 195.047 327.293 201.402 334.955 205.983C336.905 207.166 338.855 208.348 340.806 209.383C343.174 211.156 346.935 212.191 347.632 215.59C344.706 213.816 342.338 211.452 339.273 210.269C330.636 205.688 323.392 199.185 315.451 193.421C314.337 192.682 313.222 191.648 313.083 190.17Z" fill="black"/>
<path d="M201.218 191.057C201.496 191.204 202.193 191.796 202.472 192.091C202.611 194.308 203.865 196.229 205.676 197.412C207.487 197.116 209.158 196.229 210.97 196.229C211.527 198.446 211.666 200.958 213.616 202.436C214.731 202.88 215.985 202.436 217.099 202.584C216.821 204.653 214.313 204.505 212.92 203.914C210.83 202.436 210.412 199.924 209.716 197.707C208.601 198.298 207.487 199.037 206.094 198.742C203.725 198.889 202.332 196.525 201.218 194.604C201.218 193.421 201.218 192.239 201.218 191.057Z" fill="black"/>
<path d="M105.091 198.298C106.345 198.003 107.598 197.264 108.852 197.264C112.892 198.298 114.843 202.584 118.465 204.505C121.529 206.574 125.43 204.505 128.356 206.574C127.102 208.644 125.012 206.427 123.201 207.313C120.833 208.052 118.465 207.018 116.375 205.836C113.728 204.062 112.056 201.254 109.27 199.776C107.877 199.185 105.509 200.219 105.091 198.298Z" fill="black"/>
<path d="M264.462 200.662C265.855 203.913 268.92 205.983 272.402 205.539C272.402 207.904 269.616 207.017 268.223 206.574C265.994 205.983 262.929 203.322 264.462 200.662Z" fill="black"/>
<path d="M272.126 204.801C273.519 207.756 278.256 205.835 277.977 202.731C277.002 203.175 276.027 203.914 275.191 204.653C274.355 204.653 272.962 204.801 272.126 204.801Z" fill="black"/>
<path fill-rule="evenodd" clip-rule="evenodd" d="M242.034 204.653C243.985 204.506 245.935 204.653 247.746 205.54C251.229 207.461 254.851 210.269 255.826 214.408C255.965 216.181 254.294 217.216 253.179 218.398C251.229 218.398 249.418 218.102 247.607 217.363C243.985 215.147 240.223 211.156 240.92 206.131C241.199 205.836 241.756 205.097 242.034 204.653ZM242.313 206.279C241.756 211.304 245.935 214.851 249.836 216.772C250.857 216.772 251.925 216.772 253.04 216.772C254.154 215.885 255.13 214.112 253.876 212.782C252.343 209.235 248.582 208.2 245.656 206.279C244.542 206.279 243.427 206.279 242.313 206.279Z" fill="black"/>
<path d="M128.637 207.756C128.776 207.46 128.915 207.017 129.055 206.869C134.488 208.79 140.757 206.721 146.051 209.825C152.18 213.224 159.146 213.668 165.693 215.884C171.266 217.067 176.838 213.963 182.271 215.589C185.475 216.771 188.54 218.545 192.023 218.988C198.013 219.727 203.586 222.978 209.576 224.161C211.666 223.569 213.477 222.091 215.427 221.057C215.706 223.717 213.059 224.9 211.108 225.786C207.208 226.377 203.725 223.717 199.964 222.535C196.063 220.761 191.884 221.5 187.844 220.318C184.5 219.283 181.435 217.067 177.813 216.919C175.027 217.362 172.102 217.806 169.315 218.249C165.693 217.953 162.211 216.328 158.728 215.441C154.688 214.406 150.787 213.815 146.747 212.781C143.822 211.894 141.175 210.121 138.11 209.973C135.045 209.382 132.119 209.529 129.194 208.495C129.055 208.347 128.776 207.904 128.637 207.756Z" fill="black"/>
<path d="M221.694 223.423C222.112 223.423 223.087 223.571 223.645 223.718C225.316 225.492 227.127 227.413 229.217 228.891C231.864 229.187 234.232 227.857 236.601 227.265C238.133 227.413 239.247 228.743 240.501 229.63C241.709 229.531 242.916 229.531 244.123 229.63C242.869 232.734 238.83 230.517 237.018 229.039C234.929 229.778 232.7 230.517 230.471 230.812C226.988 230.073 224.202 227.413 221.694 225.049C221.694 224.605 221.694 223.718 221.694 223.423Z" fill="black"/>
<path d="M305.281 229.481C306.814 228.742 307.789 227.264 308.625 225.639C308.81 226.525 309.043 227.461 309.321 228.447C305.838 233.176 299.152 233.472 294.415 230.959C292.186 229.481 289.957 231.846 287.728 232.289C284.106 232.88 280.345 233.176 276.723 232.437C276.583 232.141 276.305 231.55 276.305 231.255C279.648 230.811 283.131 230.516 286.474 229.777C288.843 229.333 291.072 227.56 293.579 228.151C295.669 228.89 297.619 230.22 299.848 230.22C301.659 230.368 303.47 229.925 305.281 229.481Z" fill="black"/>
<path d="M245.936 228.891C246.957 228.595 248.025 228.595 249.14 228.891C250.394 229.63 251.647 230.369 253.04 230.96C255.13 231.551 257.08 230.073 259.17 230.664C261.956 231.107 264.603 231.846 267.529 231.994C267.389 232.29 267.111 232.881 267.111 233.324C264.464 233.62 261.817 233.324 259.309 232.881C257.08 232.29 254.712 234.063 252.483 233.029C250.254 231.994 247.886 230.664 245.936 228.891Z" fill="black"/>
</g>
<defs>
<clipPath id="clip0_270_1299">
<rect width="319" height="250" fill="white"/>
</clipPath>
</defs>
</svg>
